<svg xmlns="http://www.w3.org/2000/svg" width="748" height="157" viewBox="0 0 748 157" version="1.1"><path d="M 0.437 1.305 C 0.161 2.022, 4.675 36.646, 10.468 78.247 C 16.261 119.847, 21 154.147, 21 154.468 C 21 154.789, 27.848 154.928, 36.217 154.776 L 51.433 154.500 66.087 118 C 74.147 97.925, 83.650 73.019, 87.206 62.652 L 93.671 43.805 94.322 93.152 C 94.681 120.294, 95.270 145.324, 95.632 148.775 L 96.290 155.051 111.314 154.775 L 126.337 154.500 133.792 140 C 137.892 132.025, 150.073 108.625, 160.861 88 C 171.649 67.375, 186.137 39.475, 193.058 26 C 199.978 12.525, 205.349 1.150, 204.993 0.723 C 204.637 0.296, 197.406 0.071, 188.923 0.223 L 173.500 0.500 155.317 37 C 145.316 57.075, 133.391 81.906, 128.817 92.179 L 120.500 110.858 119.842 94.679 C 119.480 85.781, 118.657 61.175, 118.014 40 C 117.371 18.825, 116.507 1.150, 116.094 0.722 C 115.682 0.295, 108.658 0.070, 100.485 0.222 L 85.626 0.500 77.298 20.500 C 72.718 31.500, 65.176 49.950, 60.537 61.500 C 55.899 73.050, 49.852 89.250, 47.101 97.500 C 44.349 105.750, 42.074 112.050, 42.045 111.500 C 42.017 110.950, 41.308 103.300, 40.471 94.500 C 39.634 85.700, 36.930 61.235, 34.462 40.134 C 31.994 19.032, 29.729 1.370, 29.428 0.884 C 29.128 0.398, 22.594 0, 14.910 0 C 4.342 0, 0.815 0.318, 0.437 1.305 M 207.523 1.250 C 207.295 1.938, 206.142 7.450, 204.962 13.500 C 203.781 19.550, 196.782 53.244, 189.408 88.377 C 182.033 123.509, 176 152.871, 176 153.627 C 176 154.728, 178.860 155, 190.421 155 L 204.841 155 205.428 152.250 C 205.751 150.738, 212.962 116.229, 221.452 75.565 C 229.943 34.901, 236.663 1.264, 236.386 0.815 C 236.109 0.367, 229.594 0, 221.910 0 C 211.619 0, 207.828 0.329, 207.523 1.250 M 250.645 6.750 C 249.811 10.463, 242.575 44.813, 234.564 83.083 C 226.554 121.354, 220 153.192, 220 153.833 C 220 154.668, 224.093 155, 234.392 155 C 248.486 155, 248.795 154.954, 249.336 152.750 C 249.640 151.512, 253.768 131.825, 258.509 109 C 263.250 86.175, 267.907 62.331, 268.859 56.013 L 270.589 44.526 274.981 55.513 C 277.396 61.556, 282.379 73.025, 286.054 81 C 289.729 88.975, 298.568 108.100, 305.695 123.500 C 312.822 138.900, 318.942 152.287, 319.295 153.250 C 319.866 154.807, 321.540 155, 334.450 155 C 348.678 155, 348.972 154.956, 349.485 152.750 C 349.772 151.513, 354.293 129.350, 359.530 103.500 C 364.768 77.650, 371.682 44.125, 374.896 29 C 378.109 13.875, 380.424 1.149, 380.040 0.721 C 379.656 0.292, 373.079 0.067, 365.426 0.221 L 351.510 0.500 343.294 39.500 C 338.775 60.950, 333.847 85.814, 332.343 94.752 L 329.609 111.004 324.468 98.252 C 321.640 91.239, 315.150 76.500, 310.046 65.500 C 304.942 54.500, 300.421 44.600, 300 43.500 C 299.579 42.400, 295.074 32.500, 289.989 21.500 C 284.904 10.500, 280.239 1.169, 279.622 0.765 C 279.005 0.361, 272.574 0.024, 265.330 0.015 L 252.160 -0 250.645 6.750 M 394.991 2.250 C 394.460 3.488, 390.153 23.175, 385.420 46 C 380.687 68.825, 373.805 102.688, 370.128 121.250 L 363.443 155 414.154 155 C 461.591 155, 464.898 154.887, 465.371 153.250 C 465.650 152.287, 466.595 147.561, 467.472 142.746 C 468.349 137.931, 469.324 133.318, 469.640 132.496 C 470.143 131.185, 465.744 131, 434.107 131 C 414.248 131, 397.999 130.662, 397.997 130.250 C 397.996 129.838, 399.876 120.388, 402.175 109.250 L 406.356 89 435.607 89 L 464.858 89 466.024 83.250 C 466.666 80.088, 467.764 74.704, 468.465 71.287 C 469.167 67.870, 469.499 64.832, 469.204 64.537 C 468.908 64.242, 455.753 64, 439.970 64 L 411.273 64 414.136 49.750 C 415.710 41.912, 417.480 33.138, 418.070 30.250 L 419.142 25 449.571 25 L 480 25 480 12.500 L 480 0 437.979 -0 L 395.957 -0 394.991 2.250" stroke="none" fill="#a40404" fill-rule="evenodd"/><path d="M 482.455 29.455 L 480 31.909 480 90.820 C 480 148.904, 480.029 149.767, 482.073 152.365 L 484.145 155 509.125 155 C 528.568 155, 535.700 154.640, 541.303 153.374 C 545.261 152.480, 550.975 150.503, 554 148.979 C 557.025 147.456, 561.194 144.559, 563.265 142.542 C 565.336 140.525, 568.233 136.541, 569.704 133.687 C 571.923 129.382, 572.450 126.836, 572.807 118.711 C 573.218 109.325, 573.105 108.656, 570.073 102.496 C 568.306 98.907, 565.290 94.736, 563.239 93.045 C 561.220 91.381, 557.642 89.227, 555.288 88.260 C 552.934 87.292, 551.006 86.193, 551.004 85.817 C 551.002 85.442, 551.884 84.854, 552.964 84.511 C 554.045 84.168, 556.747 81.822, 558.969 79.298 C 561.327 76.619, 563.632 72.611, 564.505 69.672 C 565.327 66.903, 566 62.325, 566 59.500 C 566 56.675, 565.327 52.097, 564.505 49.328 C 563.621 46.353, 561.318 42.371, 558.878 39.599 C 556.606 37.017, 552.562 33.798, 549.893 32.446 C 547.223 31.093, 542.217 29.321, 538.769 28.508 C 534.170 27.423, 526.161 27.026, 508.705 27.015 L 484.909 27 482.455 29.455 M 507 63.480 L 507 80.262 517.250 79.797 C 524.146 79.485, 528.561 78.780, 530.741 77.645 C 532.523 76.718, 534.724 74.824, 535.632 73.438 C 536.540 72.052, 537.615 69.106, 538.020 66.891 C 538.425 64.675, 538.335 60.988, 537.820 58.696 C 537.305 56.405, 536.124 53.689, 535.194 52.662 C 534.265 51.635, 532.236 50.139, 530.686 49.338 C 529.052 48.492, 523.486 47.632, 517.434 47.290 L 507 46.699 507 63.480 M 614 59.434 C 610.425 60.191, 604.931 61.778, 601.792 62.961 C 598.518 64.195, 594.999 66.401, 593.542 68.133 C 591.530 70.524, 591.003 72.232, 591.015 76.327 C 591.023 79.172, 591.597 82.621, 592.290 83.991 C 592.983 85.361, 594.384 86.643, 595.403 86.839 C 596.421 87.035, 600.685 85.587, 604.877 83.621 C 609.429 81.487, 615.521 79.580, 620 78.889 C 626.075 77.951, 628.430 77.994, 632.395 79.119 C 635.517 80.005, 638.035 81.506, 639.348 83.265 C 640.765 85.163, 641.533 88.002, 641.811 92.379 L 642.216 98.737 628.358 99.248 C 618.150 99.625, 612.777 100.312, 607.958 101.856 C 604.359 103.009, 599.372 105.305, 596.876 106.959 C 593.930 108.910, 591.332 111.811, 589.475 115.223 C 587.025 119.726, 586.606 121.630, 586.558 128.490 C 586.510 135.322, 586.917 137.346, 589.326 142.254 C 591.243 146.158, 593.493 148.931, 596.325 150.880 C 598.621 152.459, 602.653 154.482, 605.285 155.376 C 608.084 156.326, 613.301 157, 617.853 157 C 622.134 157, 627.856 156.341, 630.568 155.535 C 633.281 154.729, 637.653 152.704, 640.285 151.035 C 642.916 149.366, 645.279 148, 645.535 148 C 645.791 148, 646 149.527, 646 151.393 C 646 153.565, 646.569 155.005, 647.582 155.393 C 648.452 155.727, 652.695 156, 657.010 156 C 662.966 156, 665.254 155.603, 666.506 154.351 C 667.989 152.868, 668.118 149.181, 667.790 117.601 C 667.442 83.994, 667.331 82.259, 665.176 76.843 C 663.752 73.262, 661.351 69.734, 658.632 67.228 C 656.270 65.051, 651.674 62.258, 648.419 61.022 C 643.934 59.318, 639.835 58.687, 631.500 58.416 C 624.610 58.191, 618.072 58.572, 614 59.434 M 727.219 59.987 C 724.865 61.055, 720.702 64.226, 717.969 67.031 L 713 72.133 713 67.123 C 713 63.080, 712.571 61.813, 710.777 60.557 C 709.315 59.532, 706.314 59, 702 59 C 697.686 59, 694.685 59.532, 693.223 60.557 L 691 62.113 691 108.022 C 691 153.658, 691.012 153.936, 693.103 155.055 C 694.397 155.747, 699.032 156.050, 705.141 155.840 C 712.608 155.585, 715.311 155.127, 716.022 154 C 716.559 153.149, 716.976 140.305, 716.985 124.331 L 717 96.161 722.042 90.644 C 724.932 87.482, 728.556 84.642, 730.532 83.990 C 733.162 83.122, 735.315 83.151, 739.616 84.113 C 744.805 85.275, 745.362 85.226, 746.626 83.496 C 747.547 82.237, 748 78.690, 748 72.743 C 748 67.862, 747.559 63.045, 747.021 62.039 C 746.483 61.033, 744.616 59.713, 742.872 59.105 C 741.128 58.497, 737.856 58.010, 735.601 58.022 C 733.345 58.034, 729.574 58.918, 727.219 59.987 M 507 116.979 L 507 135.265 519.750 134.794 C 530.265 134.406, 533.243 133.942, 536.737 132.148 C 539.554 130.702, 541.648 128.651, 542.987 126.026 C 544.094 123.856, 545 120.132, 545 117.752 C 545 115.252, 544.049 111.539, 542.750 108.962 C 541.087 105.664, 539.320 103.914, 535.978 102.254 C 532.368 100.460, 528.991 99.875, 519.228 99.350 L 507 98.693 507 116.979 M 626.500 115.679 C 624.850 115.888, 621.578 116.761, 619.229 117.620 C 616.458 118.633, 614.438 120.186, 613.479 122.041 C 612.665 123.614, 612 126.437, 612 128.315 C 612 130.246, 612.893 132.865, 614.054 134.341 C 615.183 135.777, 617.862 137.424, 620.007 138.002 C 622.802 138.755, 625.193 138.728, 628.445 137.909 C 631.165 137.225, 634.790 135.176, 637.492 132.798 L 642 128.830 642 121.915 L 642 115 635.750 115.150 C 632.313 115.232, 628.150 115.470, 626.500 115.679" stroke="none" fill="#745444" fill-rule="evenodd"/></svg>