<svg xmlns="http://www.w3.org/2000/svg" width="842" height="193" viewBox="0 0 842 193" version="1.1"><path d="M 200.479 103.500 C 200.479 152.450, 200.601 172.329, 200.750 147.675 C 200.899 123.021, 200.899 82.971, 200.750 58.675 C 200.601 34.379, 200.479 54.550, 200.479 103.500 M 231.475 88.500 C 231.475 129.200, 231.599 145.704, 231.750 125.176 C 231.901 104.648, 231.901 71.348, 231.750 51.176 C 231.598 31.004, 231.475 47.800, 231.475 88.500 M 292.479 103.500 C 292.479 152.450, 292.601 172.329, 292.750 147.675 C 292.899 123.021, 292.899 82.971, 292.750 58.675 C 292.601 34.379, 292.479 54.550, 292.479 103.500 M 323.469 103 C 323.469 135.725, 323.595 149.112, 323.749 132.750 C 323.904 116.387, 323.904 89.612, 323.749 73.250 C 323.595 56.887, 323.469 70.275, 323.469 103" stroke="none" fill="#c044a4" fill-rule="evenodd"/><path d="M 407.405 3.105 C 405.577 5.125, 405.500 7.594, 405.500 64.193 L 405.500 123.177 407.861 125.088 C 410.044 126.856, 412.079 126.999, 434.861 126.985 C 453.159 126.974, 461.128 126.587, 465.825 125.479 C 469.304 124.659, 474.704 122.754, 477.825 121.245 C 480.946 119.736, 485.603 116.369, 488.174 113.762 C 491.102 110.793, 493.677 106.872, 495.068 103.262 C 496.673 99.094, 497.303 95.264, 497.344 89.419 C 497.391 82.559, 496.984 80.487, 494.644 75.704 C 493.094 72.536, 489.880 68.304, 487.300 66.032 C 484.776 63.811, 480.976 61.474, 478.856 60.839 C 476.735 60.203, 475.006 59.417, 475.012 59.092 C 475.019 58.766, 476.595 57.483, 478.513 56.240 C 480.432 54.998, 483.308 52.177, 484.905 49.972 C 486.503 47.767, 488.360 43.669, 489.032 40.865 C 489.705 38.062, 490.033 32.999, 489.761 29.614 C 489.457 25.822, 488.292 21.550, 486.727 18.481 C 485.330 15.741, 482.907 12.288, 481.343 10.807 C 479.779 9.325, 475.992 6.966, 472.927 5.564 C 469.862 4.162, 464.963 2.562, 462.040 2.008 C 459.118 1.453, 446.058 1, 433.018 1 C 410.186 1, 409.240 1.078, 407.405 3.105 M 1.286 19.750 C 1.596 22.913, 6.608 62.425, 12.425 107.555 C 18.241 152.685, 23 190.147, 23 190.805 C 23 191.679, 27.027 192, 37.981 192 C 52.697 192, 52.971 191.960, 53.478 189.750 C 53.762 188.513, 57.835 164.550, 62.529 136.500 C 67.223 108.450, 71.396 84.680, 71.803 83.678 C 72.252 82.572, 74.228 92.586, 76.833 109.178 C 79.193 124.205, 82.897 147.975, 85.064 162 C 87.230 176.025, 89.236 188.512, 89.521 189.750 C 90.029 191.960, 90.303 192, 105.019 192 C 117.421 192, 120 191.751, 120 190.554 C 120 189.759, 122.016 173.446, 124.480 154.304 C 126.943 135.162, 131.893 96.583, 135.480 68.573 C 139.066 40.563, 142 16.826, 142 15.823 C 142 14.138, 140.834 14, 126.572 14 L 111.144 14 110.589 19.250 C 110.283 22.138, 109.137 37.100, 108.041 52.500 C 106.945 67.900, 105.298 91.300, 104.382 104.500 C 103.465 117.700, 102.439 128.817, 102.102 129.205 C 101.765 129.593, 97.500 104.168, 92.623 72.705 C 87.746 41.242, 83.559 15.162, 83.319 14.750 C 83.079 14.338, 77.509 14, 70.941 14 C 62.053 14, 59.001 14.320, 59.003 15.250 C 59.004 15.938, 55.156 41.475, 50.450 72 C 45.745 102.525, 41.566 128.331, 41.164 129.347 C 40.763 130.363, 38.729 107.188, 36.644 77.847 C 34.560 48.506, 32.600 22.138, 32.289 19.250 L 31.725 14 16.223 14 L 0.722 14 1.286 19.750 M 151 103 L 151 192 166.500 192 L 182 192 182 103 L 182 14 166.500 14 L 151 14 151 103 M 201 103 L 201 192 239.500 192 L 278 192 278 177.518 L 278 163.037 254.750 162.768 L 231.500 162.500 231.244 88.250 L 230.987 14 215.994 14 L 201 14 201 103 M 293 103.056 L 293 192.111 322.250 191.797 C 349.961 191.499, 351.797 191.363, 357.147 189.208 C 360.253 187.957, 364.849 185.125, 367.360 182.914 C 370.179 180.433, 373.184 176.340, 375.213 172.220 L 378.500 165.545 378.780 105.329 C 379.054 46.280, 379.019 44.992, 376.943 38.807 C 375.779 35.338, 373.403 30.620, 371.663 28.322 C 369.923 26.024, 366.125 22.570, 363.223 20.646 C 360.008 18.515, 355.242 16.533, 351.026 15.574 C 345.704 14.364, 338.202 14, 318.553 14 L 293 14 293 103.056 M 431 36.487 L 431 53.262 441.361 52.801 C 449.130 52.456, 452.694 51.836, 455.611 50.323 C 457.750 49.213, 460.392 46.777, 461.483 44.911 C 462.833 42.601, 463.467 39.693, 463.467 35.809 C 463.467 31.636, 462.916 29.349, 461.419 27.301 C 460.292 25.760, 457.686 23.663, 455.626 22.639 C 453.007 21.338, 448.741 20.618, 441.441 20.246 L 431 19.713 431 36.487 M 542.746 32.027 C 540.681 32.546, 536.704 34.130, 533.908 35.546 C 531.113 36.963, 526.865 40.083, 524.468 42.479 C 522.072 44.875, 518.701 49.630, 516.977 53.046 C 515.253 56.461, 513.210 62.236, 512.438 65.878 C 511.666 69.520, 511.027 76.376, 511.017 81.114 C 511.008 85.851, 511.420 91.941, 511.933 94.647 C 512.446 97.353, 513.820 102.118, 514.987 105.235 C 516.187 108.443, 519.100 113.119, 521.696 116.007 C 524.220 118.814, 528.463 122.214, 531.126 123.564 C 533.788 124.913, 538.544 126.688, 541.693 127.508 C 544.891 128.341, 551.763 129, 557.252 129 C 562.660 129, 570.450 128.305, 574.564 127.455 C 578.678 126.605, 584.028 125.060, 586.452 124.021 C 588.876 122.982, 591.341 121.231, 591.930 120.131 C 592.518 119.031, 593 115.664, 593 112.648 C 593 109.631, 592.727 106.452, 592.393 105.582 C 592.059 104.712, 590.780 104, 589.550 104 C 588.320 104, 584.754 104.880, 581.627 105.956 C 578.499 107.032, 572.350 108.404, 567.961 109.005 C 562.366 109.771, 558.307 109.788, 554.381 109.063 C 551.300 108.493, 547.277 107.098, 545.441 105.963 C 543.604 104.828, 541.146 102.355, 539.980 100.468 C 538.814 98.580, 537.603 94.553, 537.290 91.518 L 536.720 86 564.669 86 C 587.151 86, 592.995 85.724, 594.547 84.589 C 596.110 83.447, 596.546 81.664, 596.838 75.227 C 597.037 70.854, 596.690 64.823, 596.067 61.823 C 595.444 58.824, 593.670 53.699, 592.124 50.435 C 590.548 47.109, 587.428 42.801, 585.026 40.635 C 582.669 38.510, 578.211 35.608, 575.120 34.188 C 570.277 31.963, 567.911 31.570, 558 31.345 C 551.675 31.202, 544.811 31.509, 542.746 32.027 M 651 33.761 C 648.525 35.358, 644.813 38.541, 642.750 40.835 L 639 45.006 639 40.074 C 639 36.925, 638.432 34.575, 637.429 33.571 C 636.280 32.422, 633.843 32, 628.363 32 C 624.241 32, 619.998 32.466, 618.934 33.035 C 617.065 34.036, 617 35.614, 617 80 C 617 124.386, 617.065 125.964, 618.934 126.965 C 619.998 127.534, 624.753 128, 629.500 128 C 634.247 128, 639.002 127.534, 640.066 126.965 C 641.908 125.979, 642 124.585, 642 97.600 C 642 70.101, 642.064 69.185, 644.166 66.385 C 645.357 64.798, 647.933 61.803, 649.890 59.728 C 651.859 57.641, 655.067 55.520, 657.073 54.980 C 659.713 54.270, 661.949 54.381, 665.308 55.392 C 669.054 56.520, 670.245 56.541, 671.658 55.508 C 673.093 54.459, 673.406 52.564, 673.448 44.657 C 673.491 36.786, 673.185 34.761, 671.733 33.307 C 670.449 32.021, 667.987 31.444, 662.733 31.198 C 656.150 30.889, 655.096 31.119, 651 33.761 M 722 33.761 C 719.525 35.358, 715.813 38.541, 713.750 40.835 L 710 45.006 710 40.074 C 710 36.925, 709.432 34.575, 708.429 33.571 C 707.280 32.422, 704.843 32, 699.363 32 C 695.241 32, 690.998 32.466, 689.934 33.035 C 688.065 34.036, 688 35.614, 688 80 C 688 124.386, 688.065 125.964, 689.934 126.965 C 690.998 127.534, 695.753 128, 700.500 128 C 705.247 128, 710.002 127.534, 711.066 126.965 C 712.908 125.979, 713 124.585, 713 97.600 C 713 70.101, 713.064 69.185, 715.166 66.385 C 716.357 64.798, 718.933 61.803, 720.890 59.728 C 722.859 57.641, 726.067 55.520, 728.073 54.980 C 730.713 54.270, 732.949 54.381, 736.308 55.392 C 740.054 56.520, 741.245 56.541, 742.658 55.508 C 744.093 54.459, 744.406 52.564, 744.448 44.657 C 744.491 36.786, 744.185 34.761, 742.733 33.307 C 741.449 32.021, 738.987 31.444, 733.733 31.198 C 727.150 30.889, 726.096 31.119, 722 33.761 M 751.750 33.080 C 750.788 33.641, 750 35.203, 750 36.553 C 750 37.902, 757.020 58.017, 765.600 81.253 C 774.180 104.489, 781.990 124.323, 782.956 125.328 C 784.635 127.077, 784.458 127.804, 778.856 142.121 C 775.635 150.351, 773 157.951, 773 159.008 C 773 160.065, 773.946 161.436, 775.103 162.055 C 776.395 162.747, 781.015 163.050, 787.078 162.840 C 795.385 162.554, 797.246 162.183, 798.826 160.500 C 799.876 159.382, 809.596 132.038, 820.866 98.500 C 831.955 65.500, 841.022 37.738, 841.014 36.807 C 841.006 35.875, 840 34.413, 838.777 33.557 C 837.205 32.455, 834.159 32, 828.359 32 C 823.852 32, 819.449 32.274, 818.577 32.609 C 817.558 33, 815.044 39.354, 811.553 50.359 C 808.564 59.787, 804.118 73.800, 801.674 81.500 C 797.374 95.046, 797.191 95.403, 796.013 92.500 C 795.344 90.850, 791.511 80.050, 787.496 68.500 C 783.481 56.950, 779.059 44.396, 777.669 40.603 C 776.279 36.809, 774.547 33.329, 773.821 32.868 C 773.094 32.407, 768.225 32.037, 763 32.046 C 757.775 32.054, 752.712 32.519, 751.750 33.080 M 323.242 103.250 L 323.500 162.500 331.525 162.406 C 335.939 162.354, 340.575 161.763, 341.828 161.092 C 343.082 160.421, 344.981 158.439, 346.050 156.686 C 347.905 153.644, 347.993 151.247, 347.996 103.718 C 347.999 62.949, 347.743 53.320, 346.579 50.534 C 345.789 48.643, 343.813 46.437, 342.128 45.566 C 340.114 44.525, 336.400 44, 331.042 44 L 322.984 44 323.242 103.250 M 549.784 49.173 C 547.599 49.767, 544.639 51.764, 542.600 54.021 C 540.693 56.131, 538.656 59.578, 538.072 61.679 C 537.489 63.781, 537.009 66.513, 537.006 67.750 L 537 70 554.981 70 L 572.962 70 572.358 65.250 C 572.025 62.638, 570.797 58.723, 569.627 56.551 C 568.457 54.379, 566.150 51.835, 564.500 50.898 C 562.850 49.961, 559.700 48.962, 557.500 48.679 C 555.300 48.395, 551.828 48.618, 549.784 49.173 M 431 89.496 L 431 107.284 444.442 106.771 C 456.600 106.307, 458.307 106.010, 462.312 103.663 C 465.088 102.036, 467.390 99.698, 468.482 97.396 C 469.717 94.795, 470.094 92.148, 469.777 88.321 C 469.513 85.145, 468.518 81.800, 467.362 80.209 C 466.281 78.719, 463.282 76.440, 460.699 75.144 C 456.774 73.176, 453.946 72.700, 443.501 72.249 L 431 71.709 431 89.496" stroke="none" fill="#bc44a4" fill-rule="evenodd"/></svg>