<svg xmlns="http://www.w3.org/2000/svg" width="771" height="204" viewBox="0 0 771 204" version="1.1"><path d="" stroke="none" fill="#dcfc04" fill-rule="evenodd"/><path d="M 0 101.500 L 0 203 13.989 203 L 27.979 203 28.239 159.750 L 28.500 116.500 46.250 116.227 L 64 115.954 64 159.477 L 64 203 78.500 203 L 93 203 93 101.500 L 93 0 78.500 0 L 64 0 64 44.023 L 64 88.046 46.250 87.773 L 28.500 87.500 28.239 43.750 L 27.979 0 13.989 0 L 0 0 0 101.500 M 257 0.859 C 254.525 1.259, 250.250 2.429, 247.500 3.458 C 244.750 4.487, 240.988 6.441, 239.140 7.799 C 237.292 9.158, 234.250 11.897, 232.380 13.885 C 230.510 15.873, 227.403 20.650, 225.477 24.500 C 223.522 28.406, 221.316 34.964, 220.487 39.338 C 219.284 45.676, 219 57.662, 219 101.981 C 219 148.638, 219.241 157.954, 220.622 164.643 C 221.515 168.964, 223.584 175.338, 225.222 178.807 C 226.868 182.294, 230.518 187.490, 233.387 190.428 C 236.241 193.351, 240.530 196.740, 242.919 197.959 C 245.308 199.178, 249.341 200.806, 251.881 201.577 C 254.708 202.435, 261.070 202.983, 268.282 202.989 C 277.590 202.998, 281.368 202.562, 286.282 200.915 C 289.702 199.768, 294.075 197.673, 296 196.261 C 297.925 194.848, 300.997 192.299, 302.827 190.596 C 304.657 188.893, 307.702 184.744, 309.593 181.375 C 311.651 177.710, 313.821 171.685, 314.995 166.375 C 316.675 158.774, 316.960 153.588, 316.978 130.250 L 317 103 287.500 103 L 258 103 258 116.974 L 258 130.948 273.250 131.224 L 288.500 131.500 288.368 144 C 288.260 154.184, 287.834 157.554, 286.069 162.190 C 284.770 165.600, 282.528 169.086, 280.472 170.890 C 278.586 172.546, 275.433 174.203, 273.465 174.573 C 271.498 174.942, 267.682 175.032, 264.986 174.773 C 261.730 174.460, 258.895 173.395, 256.541 171.599 C 254.592 170.113, 252.292 167.531, 251.429 165.862 C 250.566 164.193, 249.224 159.829, 248.447 156.164 C 247.345 150.963, 247.035 139.178, 247.037 102.500 C 247.039 76.650, 247.446 52.695, 247.942 49.266 C 248.438 45.838, 249.879 40.960, 251.144 38.426 C 252.409 35.892, 254.628 32.977, 256.074 31.947 C 257.520 30.917, 260.780 29.610, 263.318 29.041 C 266.552 28.316, 269.451 28.332, 273.007 29.095 C 276.629 29.872, 279.054 31.184, 281.477 33.679 C 283.344 35.601, 285.591 39.273, 286.471 41.837 C 287.407 44.568, 288.327 51.783, 288.690 59.250 L 289.309 72 303.300 72 L 317.291 72 316.714 57.250 C 316.396 49.138, 315.621 39.846, 314.990 36.602 C 314.360 33.358, 312.781 28.302, 311.483 25.365 C 310.184 22.429, 307.407 17.974, 305.311 15.465 C 303.215 12.956, 299.250 9.358, 296.500 7.470 C 293.750 5.581, 289.250 3.352, 286.500 2.516 C 283.750 1.680, 277 0.801, 271.500 0.563 C 266 0.325, 259.475 0.458, 257 0.859 M 366.232 1.060 C 363.885 1.523, 359.253 3.347, 355.940 5.113 C 352.566 6.911, 347.585 10.841, 344.616 14.048 C 340.746 18.228, 338.583 21.750, 336.600 27.101 C 335.105 31.132, 333.198 38.946, 332.362 44.465 C 331.097 52.803, 330.918 63.293, 331.299 106.500 C 331.679 149.504, 332.036 159.711, 333.366 165.500 C 334.250 169.350, 336.568 175.739, 338.516 179.698 C 340.947 184.639, 343.694 188.344, 347.279 191.516 C 350.150 194.058, 354.300 197.075, 356.500 198.221 C 358.700 199.367, 362.750 200.906, 365.500 201.641 C 368.250 202.375, 374.775 202.976, 380 202.976 C 385.225 202.976, 391.860 202.348, 394.744 201.580 C 397.628 200.812, 402.128 199.155, 404.744 197.897 C 407.360 196.639, 411.993 193.110, 415.039 190.055 C 418.200 186.886, 421.764 181.974, 423.339 178.619 C 424.857 175.384, 426.864 169.309, 427.799 165.119 C 429.290 158.440, 429.500 150.532, 429.500 101 C 429.500 49.162, 429.346 43.881, 427.631 37 C 426.603 32.875, 424.396 26.671, 422.726 23.214 C 420.749 19.121, 417.695 15.082, 413.971 11.634 C 410.825 8.721, 406.137 5.344, 403.552 4.129 C 400.967 2.914, 396.574 1.488, 393.789 0.960 C 391.005 0.432, 384.626 0.049, 379.614 0.110 C 374.601 0.170, 368.579 0.598, 366.232 1.060 M 111.249 84.722 C 111.558 166.994, 111.601 168.612, 113.680 174.718 C 114.845 178.138, 116.734 182.452, 117.879 184.304 C 119.024 186.157, 122.346 189.929, 125.261 192.685 C 128.176 195.442, 132.122 198.402, 134.030 199.263 C 135.939 200.123, 139.075 201.277, 141 201.826 C 142.925 202.375, 147.435 203.091, 151.021 203.416 C 154.608 203.742, 161.133 203.554, 165.521 202.998 C 170.408 202.379, 175.632 200.946, 179 199.300 C 182.025 197.822, 186.610 194.448, 189.190 191.802 C 191.769 189.156, 195.237 184.180, 196.896 180.745 C 198.555 177.310, 200.607 171.031, 201.456 166.792 C 202.770 160.234, 203 147.298, 203 80.042 L 203 1 189 1 L 175 1 174.980 75.250 C 174.968 119.450, 174.555 152.333, 173.958 156.500 C 173.308 161.036, 171.983 165.080, 170.192 167.988 C 168.672 170.457, 166.320 173.037, 164.965 173.723 C 163.609 174.409, 159.853 174.977, 156.618 174.985 C 152.426 174.996, 149.789 174.415, 147.439 172.962 C 145.558 171.800, 143.145 168.900, 141.821 166.212 L 139.500 161.500 139 81.500 L 138.500 1.500 124.717 1.222 L 110.935 0.943 111.249 84.722 M 373 29.118 C 371.625 29.664, 369.048 31.514, 367.272 33.229 C 365.497 34.945, 363.247 38.633, 362.272 41.424 C 360.659 46.045, 360.500 51.430, 360.500 101.500 C 360.500 152.176, 360.644 156.912, 362.326 161.737 C 363.558 165.271, 365.448 168.083, 368.134 170.382 C 370.727 172.602, 373.608 174.014, 376.398 174.432 C 378.753 174.786, 382.635 174.762, 385.024 174.380 C 388.258 173.863, 390.420 172.633, 393.490 169.563 C 396.535 166.518, 398.056 163.861, 399.307 159.404 C 400.798 154.090, 401 147.220, 401 101.894 C 401 58.750, 400.750 49.456, 399.457 44.460 C 398.609 41.182, 396.664 36.925, 395.136 35 C 393.608 33.075, 390.815 30.713, 388.929 29.752 C 386.939 28.737, 383.401 28.029, 380.500 28.065 C 377.750 28.099, 374.375 28.573, 373 29.118 M 646.262 55.529 C 645.062 56.370, 643.787 58.617, 643.430 60.522 C 643.072 62.428, 643.055 65.083, 643.391 66.423 C 643.728 67.764, 644.709 69.567, 645.573 70.430 C 646.640 71.497, 649.007 72, 652.961 72 C 657.199 72, 659.419 71.481, 661.139 70.088 C 663.049 68.542, 663.500 67.224, 663.500 63.193 C 663.500 59.696, 662.932 57.582, 661.595 56.105 C 660.089 54.440, 658.514 54, 654.068 54 C 650.641 54, 647.592 54.597, 646.262 55.529 M 467.500 58.723 C 464.358 59.799, 460.818 62.119, 457.972 64.967 C 455.254 67.688, 452.956 71.145, 452.222 73.616 C 451.550 75.880, 451 80.350, 451 83.550 C 451 87.406, 451.704 90.823, 453.088 93.682 C 454.236 96.054, 456.971 99.532, 459.166 101.410 C 461.360 103.288, 467.508 106.931, 472.828 109.505 C 478.148 112.079, 483.738 115.353, 485.250 116.780 C 487.281 118.696, 488 120.335, 488 123.052 C 488 125.222, 487.176 127.778, 485.991 129.284 C 484.660 130.977, 482.312 132.196, 479.029 132.900 C 475.652 133.625, 472.393 133.646, 468.788 132.967 C 465.880 132.420, 461.205 130.853, 458.400 129.486 C 455.596 128.119, 452.610 127, 451.767 127 C 450.923 127, 449.962 128.012, 449.630 129.250 C 449.299 130.488, 449.021 132.992, 449.014 134.816 C 449.006 136.639, 449.524 139.114, 450.163 140.316 C 450.803 141.517, 452.041 143.057, 452.913 143.738 C 453.786 144.419, 457.360 145.881, 460.855 146.988 C 464.981 148.294, 469.968 149, 475.070 149 C 479.646 149, 484.900 148.331, 487.644 147.400 C 490.237 146.519, 494.100 144.700, 496.229 143.355 C 498.358 142.011, 501.408 138.849, 503.007 136.328 C 504.606 133.807, 506.434 129.419, 507.070 126.577 C 507.952 122.635, 507.945 120.050, 507.038 115.684 C 506.307 112.160, 504.617 108.332, 502.645 105.729 C 500.095 102.364, 496.808 100.154, 486.561 94.912 C 479.477 91.289, 472.853 87.302, 471.841 86.052 C 470.828 84.801, 470 82.303, 470 80.500 C 470 78.697, 470.788 76.250, 471.750 75.061 C 472.712 73.873, 475.162 72.527, 477.192 72.069 C 479.224 71.611, 483.024 71.636, 485.641 72.125 C 488.257 72.614, 492.250 73.911, 494.514 75.007 C 496.779 76.103, 499.338 77, 500.202 77 C 501.287 77, 501.964 75.685, 502.389 72.750 C 502.728 70.412, 502.650 67.150, 502.216 65.500 C 501.621 63.237, 500.209 61.892, 496.468 60.025 C 492.420 58.006, 489.762 57.501, 482.004 57.282 C 475.069 57.085, 471.148 57.475, 467.500 58.723 M 682.238 66.162 C 681.499 66.901, 681 70.117, 681 74.143 L 681 80.885 676.790 81.193 C 672.841 81.481, 672.533 81.724, 671.836 85.101 C 671.428 87.081, 671.440 90.006, 671.863 91.601 C 672.533 94.124, 673.162 94.539, 676.713 94.802 L 680.793 95.105 681.150 114.802 C 681.487 133.450, 681.639 134.764, 684.003 139.448 C 685.376 142.169, 687.742 145.298, 689.261 146.401 C 691.130 147.759, 694.109 148.540, 698.490 148.818 C 702.048 149.045, 706.528 148.936, 708.447 148.576 C 710.366 148.216, 712.625 147.232, 713.468 146.389 C 714.464 145.394, 715 142.977, 715 139.488 C 715 136.534, 714.541 133.834, 713.980 133.488 C 713.420 133.141, 711.460 133.353, 709.624 133.959 C 707.370 134.703, 705.450 134.742, 703.704 134.078 C 701.911 133.396, 700.797 131.933, 700.066 129.298 C 699.486 127.209, 699.009 118.656, 699.006 110.292 L 699 95.084 706.750 94.792 L 714.500 94.500 714.500 88 L 714.500 81.500 706.791 81.209 L 699.083 80.917 698.791 73.209 L 698.500 65.500 690.988 65.212 C 686.003 65.021, 683.059 65.341, 682.238 66.162 M 546 81.079 C 543.525 82.198, 540.038 84.526, 538.250 86.253 L 535 89.392 535 85.803 C 535 83.453, 534.454 82.004, 533.418 81.607 C 532.548 81.273, 529.488 81, 526.618 81 C 523.748 81, 520.860 81.540, 520.200 82.200 C 519.304 83.096, 519 94.229, 519 126.129 C 519 164.106, 519.179 169.036, 520.613 170.470 C 521.860 171.717, 523.846 172.017, 529.363 171.792 L 536.500 171.500 536.777 156.750 C 536.929 148.637, 537.436 142, 537.904 142 C 538.372 142, 539.343 142.708, 540.061 143.573 C 540.779 144.438, 543.066 146.013, 545.143 147.073 C 547.470 148.260, 550.951 148.998, 554.210 148.994 C 557.120 148.991, 561.300 148.496, 563.500 147.895 C 566.093 147.185, 569.156 145.093, 572.207 141.949 C 575.914 138.127, 577.333 135.653, 578.891 130.298 C 579.979 126.559, 581.140 121.025, 581.471 118 C 581.802 114.975, 581.599 109.173, 581.020 105.106 C 580.440 101.040, 579.050 95.640, 577.930 93.106 C 576.809 90.573, 574.679 87.206, 573.196 85.624 C 571.713 84.042, 568.700 81.914, 566.500 80.896 C 564.011 79.743, 560.234 79.044, 556.500 79.044 C 552.607 79.044, 548.920 79.758, 546 81.079 M 618.324 80.944 C 616.577 82.009, 614.102 84.302, 612.824 86.039 L 610.500 89.199 610 85.349 L 609.500 81.500 603.163 81.200 C 599.351 81.020, 596.262 81.367, 595.413 82.072 C 594.252 83.036, 594 88.727, 594 114 C 594 139.220, 594.253 144.965, 595.408 145.923 C 596.280 146.647, 599.605 146.979, 604.158 146.796 L 611.500 146.500 612 126.500 C 612.314 113.948, 612.935 105.755, 613.668 104.500 C 614.310 103.400, 616.449 100.948, 618.420 99.052 C 621.191 96.386, 622.741 95.653, 625.252 95.820 C 627.038 95.939, 629.625 96.141, 631 96.268 C 633.441 96.495, 633.507 96.324, 633.798 89.022 C 634.045 82.846, 633.794 81.322, 632.357 80.272 C 631.401 79.572, 628.566 79.002, 626.059 79.004 C 623.316 79.006, 620.235 79.779, 618.324 80.944 M 645.057 82.893 C 644.382 84.155, 644 95.683, 644 114.812 C 644 139.334, 644.255 144.967, 645.408 145.923 C 646.280 146.647, 649.605 146.979, 654.158 146.796 L 661.500 146.500 661.500 114 L 661.500 81.500 653.807 81.209 C 647.002 80.952, 645.992 81.146, 645.057 82.893 M 725.419 82.349 C 725.126 83.113, 725.024 86.160, 725.193 89.119 L 725.500 94.500 737.154 95 L 748.807 95.500 745.510 100.500 C 743.697 103.250, 738.110 111.800, 733.096 119.500 L 723.978 133.500 724.239 140 L 724.500 146.500 747.129 146.768 L 769.757 147.037 770.365 144.768 C 770.699 143.521, 770.979 141.074, 770.986 139.332 C 770.994 137.589, 770.727 135.452, 770.393 134.582 C 769.883 133.253, 767.729 133, 756.917 133 L 744.049 133 755.112 115.781 C 761.196 106.311, 766.832 97.291, 767.636 95.737 C 768.556 93.959, 768.987 90.797, 768.799 87.206 L 768.500 81.500 747.226 81.230 C 729.810 81.009, 725.856 81.212, 725.419 82.349 M 546.204 96.104 C 543.841 97.287, 540.803 99.702, 539.454 101.472 C 537.239 104.375, 537 105.633, 537 114.371 L 537 124.053 541.323 128.376 C 543.701 130.754, 546.964 132.962, 548.573 133.283 C 550.369 133.642, 552.852 133.217, 555 132.184 C 557.212 131.119, 559.236 129.028, 560.500 126.500 C 562.067 123.365, 562.492 120.553, 562.463 113.500 C 562.437 107.193, 561.944 103.602, 560.815 101.498 C 559.930 99.846, 558.371 97.744, 557.352 96.826 C 556.334 95.907, 554.375 94.885, 553 94.554 C 551.413 94.172, 548.930 94.738, 546.204 96.104" stroke="none" fill="#d4fc04" fill-rule="evenodd"/></svg>