<svg xmlns="http://www.w3.org/2000/svg" width="728" height="203" viewBox="0 0 728 203" version="1.1"><path d="" stroke="none" fill="#d8fc04" fill-rule="evenodd"/><path d="M 0 101.500 L 0 203 13.989 203 L 27.979 203 28.239 159.750 L 28.500 116.500 46.250 116.227 L 64 115.954 64 159.477 L 64 203 78.500 203 L 93 203 93 101.500 L 93 0 78.500 0 L 64 0 64 44.023 L 64 88.046 46.250 87.773 L 28.500 87.500 28.239 43.750 L 27.979 0 13.989 0 L 0 0 0 101.500 M 257 0.859 C 254.525 1.259, 250.250 2.429, 247.500 3.458 C 244.750 4.487, 240.988 6.441, 239.140 7.799 C 237.292 9.158, 234.250 11.897, 232.380 13.885 C 230.510 15.873, 227.403 20.650, 225.477 24.500 C 223.522 28.406, 221.316 34.964, 220.487 39.338 C 219.284 45.676, 219 57.662, 219 101.981 C 219 148.638, 219.241 157.954, 220.622 164.643 C 221.515 168.964, 223.584 175.338, 225.222 178.807 C 226.868 182.294, 230.518 187.490, 233.387 190.428 C 236.241 193.351, 240.530 196.740, 242.919 197.959 C 245.308 199.178, 249.341 200.806, 251.881 201.577 C 254.708 202.435, 261.070 202.983, 268.282 202.989 C 277.590 202.998, 281.368 202.562, 286.282 200.915 C 289.702 199.768, 294.075 197.673, 296 196.261 C 297.925 194.848, 300.997 192.299, 302.827 190.596 C 304.657 188.893, 307.702 184.744, 309.593 181.375 C 311.651 177.710, 313.821 171.685, 314.995 166.375 C 316.675 158.774, 316.960 153.588, 316.978 130.250 L 317 103 287.500 103 L 258 103 258 116.974 L 258 130.948 273.250 131.224 L 288.500 131.500 288.368 144 C 288.260 154.184, 287.834 157.554, 286.069 162.190 C 284.770 165.600, 282.528 169.086, 280.472 170.890 C 278.586 172.546, 275.433 174.203, 273.465 174.573 C 271.498 174.942, 267.682 175.032, 264.986 174.773 C 261.730 174.460, 258.895 173.395, 256.541 171.599 C 254.592 170.113, 252.292 167.531, 251.429 165.862 C 250.566 164.193, 249.224 159.829, 248.447 156.164 C 247.345 150.963, 247.035 139.178, 247.037 102.500 C 247.039 76.650, 247.446 52.695, 247.942 49.266 C 248.438 45.838, 249.879 40.960, 251.144 38.426 C 252.409 35.892, 254.628 32.977, 256.074 31.947 C 257.520 30.917, 260.780 29.610, 263.318 29.041 C 266.552 28.316, 269.451 28.332, 273.007 29.095 C 276.629 29.872, 279.054 31.184, 281.477 33.679 C 283.344 35.601, 285.591 39.273, 286.471 41.837 C 287.407 44.568, 288.327 51.783, 288.690 59.250 L 289.309 72 303.300 72 L 317.291 72 316.714 57.250 C 316.396 49.138, 315.621 39.846, 314.990 36.602 C 314.360 33.358, 312.781 28.302, 311.483 25.365 C 310.184 22.429, 307.407 17.974, 305.311 15.465 C 303.215 12.956, 299.250 9.358, 296.500 7.470 C 293.750 5.581, 289.250 3.352, 286.500 2.516 C 283.750 1.680, 277 0.801, 271.500 0.563 C 266 0.325, 259.475 0.458, 257 0.859 M 366.232 1.060 C 363.885 1.523, 359.253 3.347, 355.940 5.113 C 352.566 6.911, 347.585 10.841, 344.616 14.048 C 340.746 18.228, 338.583 21.750, 336.600 27.101 C 335.105 31.132, 333.198 38.946, 332.362 44.465 C 331.097 52.803, 330.918 63.293, 331.299 106.500 C 331.679 149.504, 332.036 159.711, 333.366 165.500 C 334.250 169.350, 336.568 175.739, 338.516 179.698 C 340.947 184.639, 343.694 188.344, 347.279 191.516 C 350.150 194.058, 354.300 197.075, 356.500 198.221 C 358.700 199.367, 362.750 200.906, 365.500 201.641 C 368.250 202.375, 374.775 202.976, 380 202.976 C 385.225 202.976, 391.860 202.348, 394.744 201.580 C 397.628 200.812, 402.128 199.155, 404.744 197.897 C 407.360 196.639, 411.993 193.110, 415.039 190.055 C 418.200 186.886, 421.764 181.974, 423.339 178.619 C 424.857 175.384, 426.864 169.309, 427.799 165.119 C 429.290 158.440, 429.500 150.532, 429.500 101 C 429.500 49.162, 429.346 43.881, 427.631 37 C 426.603 32.875, 424.396 26.671, 422.726 23.214 C 420.749 19.121, 417.695 15.082, 413.971 11.634 C 410.825 8.721, 406.137 5.344, 403.552 4.129 C 400.967 2.914, 396.574 1.488, 393.789 0.960 C 391.005 0.432, 384.626 0.049, 379.614 0.110 C 374.601 0.170, 368.579 0.598, 366.232 1.060 M 111.249 84.722 C 111.558 166.994, 111.601 168.612, 113.680 174.718 C 114.845 178.138, 116.716 182.413, 117.840 184.218 C 118.963 186.023, 122.046 189.598, 124.691 192.163 C 127.336 194.727, 131.075 197.683, 133 198.732 C 134.925 199.780, 138.590 201.215, 141.145 201.920 C 144.211 202.766, 150.332 203.082, 159.145 202.851 C 171.532 202.525, 172.935 202.287, 178.500 199.556 C 181.800 197.937, 186.610 194.448, 189.190 191.802 C 191.769 189.156, 195.237 184.180, 196.896 180.745 C 198.555 177.310, 200.607 171.031, 201.456 166.792 C 202.770 160.234, 203 147.298, 203 80.042 L 203 1 189 1 L 175 1 174.980 75.250 C 174.968 119.450, 174.555 152.333, 173.958 156.500 C 173.308 161.036, 171.983 165.080, 170.192 167.988 C 168.672 170.457, 166.320 173.037, 164.965 173.723 C 163.609 174.409, 159.853 174.977, 156.618 174.985 C 152.426 174.996, 149.789 174.415, 147.439 172.962 C 145.592 171.821, 143.284 169.072, 142.191 166.712 C 141.119 164.396, 139.938 161.614, 139.568 160.532 C 139.198 159.449, 138.806 123.224, 138.698 80.032 L 138.500 1.500 124.717 1.222 L 110.935 0.943 111.249 84.722 M 373 29.118 C 371.625 29.664, 369.048 31.514, 367.272 33.229 C 365.497 34.945, 363.247 38.633, 362.272 41.424 C 360.659 46.045, 360.500 51.430, 360.500 101.500 C 360.500 152.176, 360.644 156.912, 362.326 161.737 C 363.558 165.271, 365.448 168.083, 368.134 170.382 C 370.727 172.602, 373.608 174.014, 376.398 174.432 C 378.753 174.786, 382.635 174.762, 385.024 174.380 C 388.258 173.863, 390.420 172.633, 393.490 169.563 C 396.535 166.518, 398.056 163.861, 399.307 159.404 C 400.798 154.090, 401 147.220, 401 101.894 C 401 58.750, 400.750 49.456, 399.457 44.460 C 398.609 41.182, 396.664 36.925, 395.136 35 C 393.608 33.075, 390.815 30.713, 388.929 29.752 C 386.939 28.737, 383.401 28.029, 380.500 28.065 C 377.750 28.099, 374.375 28.573, 373 29.118 M 451.200 47.200 C 450.297 48.103, 450 61.311, 450 100.500 C 450 139.689, 450.297 152.897, 451.200 153.800 C 451.926 154.526, 455.448 155, 460.118 155 C 464.363 155, 468.548 154.727, 469.418 154.393 C 470.833 153.850, 471 148.167, 471 100.500 C 471 52.833, 470.833 47.150, 469.418 46.607 C 468.548 46.273, 464.363 46, 460.118 46 C 455.448 46, 451.926 46.474, 451.200 47.200 M 529.200 47.200 C 528.297 48.103, 528 61.311, 528 100.500 C 528 139.689, 528.297 152.897, 529.200 153.800 C 529.937 154.537, 533.503 154.994, 538.450 154.985 C 542.877 154.976, 547.052 154.619, 547.726 154.190 C 548.601 153.635, 549.031 148.350, 549.226 135.759 L 549.500 118.106 560.943 136.083 C 568.346 147.711, 573.113 154.241, 574.443 154.575 C 575.575 154.858, 580.325 154.957, 585 154.795 C 593.235 154.509, 593.509 154.422, 593.779 152 C 593.978 150.212, 590.694 144.376, 582.240 131.500 C 575.741 121.600, 570.123 113.013, 569.756 112.417 C 569.389 111.821, 574.036 105.746, 580.083 98.917 C 589.508 88.273, 591.037 86.072, 590.789 83.500 L 590.500 80.500 582.503 80.203 C 578.105 80.040, 573.547 80.148, 572.375 80.442 C 571.122 80.756, 565.863 86.828, 559.621 95.165 L 549 109.352 549 78.283 C 549 50.875, 548.814 47.142, 547.418 46.607 C 546.548 46.273, 542.363 46, 538.118 46 C 533.448 46, 529.926 46.474, 529.200 47.200 M 490.455 51.455 C 488.453 53.456, 488 54.908, 488 59.320 C 488 63.279, 488.556 65.437, 490.073 67.365 C 491.970 69.778, 492.755 70, 499.381 70 C 503.767 70, 507.323 69.484, 508.408 68.691 C 509.393 67.971, 510.511 65.608, 510.893 63.441 C 511.274 61.273, 511.288 57.737, 510.923 55.582 C 510.559 53.427, 509.441 51.064, 508.439 50.332 C 507.342 49.529, 503.893 49, 499.763 49 C 493.819 49, 492.583 49.326, 490.455 51.455 M 619.500 79.710 C 615.970 80.905, 612.718 83.181, 608.439 87.451 C 603.243 92.636, 602.032 94.572, 599.960 101 C 598.050 106.925, 597.548 110.600, 597.572 118.500 C 597.592 125.079, 598.204 130.506, 599.362 134.364 C 600.330 137.588, 602.303 142.012, 603.747 144.193 C 605.190 146.375, 608.213 149.426, 610.464 150.975 C 612.715 152.524, 616.988 154.513, 619.960 155.395 C 623.379 156.411, 629.060 156.995, 635.432 156.985 C 640.969 156.977, 648.423 156.282, 651.995 155.440 C 655.567 154.598, 659.505 153.244, 660.745 152.431 C 662.728 151.132, 663 150.113, 663 143.977 C 663 137.024, 662.990 137, 660.250 137.033 C 658.737 137.051, 655.025 137.936, 652 139 C 648.246 140.321, 643.770 140.945, 637.898 140.967 C 630.596 140.995, 628.790 140.659, 625.952 138.747 C 624.113 137.507, 621.830 135.145, 620.880 133.497 C 619.929 131.848, 618.842 128.813, 618.464 126.750 L 617.777 123 640.766 123 C 660.999 123, 663.920 122.800, 665.128 121.335 C 666.085 120.174, 666.455 117.071, 666.353 111.085 C 666.247 104.949, 665.576 100.836, 664 96.668 C 662.787 93.460, 660.419 89.269, 658.738 87.354 C 657.056 85.439, 653.390 82.686, 650.590 81.237 C 646.204 78.967, 644.047 78.562, 635 78.310 C 627.148 78.090, 623.239 78.444, 619.500 79.710 M 708.361 80.853 C 706.195 82.423, 703.540 85.010, 702.461 86.603 L 700.500 89.500 700 85 L 699.500 80.500 692.158 80.204 C 687.605 80.021, 684.280 80.353, 683.408 81.077 C 682.246 82.040, 682 88.401, 682 117.422 C 682 143.449, 682.312 152.912, 683.200 153.800 C 683.926 154.526, 687.448 155, 692.118 155 C 696.363 155, 700.548 154.727, 701.418 154.393 C 702.795 153.865, 703 150.903, 703 131.543 L 703 109.300 705.892 105.307 C 707.483 103.111, 710.071 100.297, 711.642 99.053 C 714.158 97.063, 715.235 96.866, 720.637 97.412 C 725.716 97.926, 726.879 97.757, 727.387 96.434 C 727.724 95.556, 728 91.755, 728 87.990 C 728 83.099, 727.551 80.694, 726.429 79.571 C 725.334 78.477, 722.953 78, 718.579 78 C 713.261 78, 711.697 78.437, 708.361 80.853 M 490.200 81.200 C 489.312 82.088, 489 91.533, 489 117.500 C 489 143.467, 489.312 152.912, 490.200 153.800 C 490.926 154.526, 494.448 155, 499.118 155 C 503.363 155, 507.548 154.727, 508.418 154.393 C 509.820 153.855, 510 149.666, 510 117.500 C 510 85.334, 509.820 81.145, 508.418 80.607 C 507.548 80.273, 503.363 80, 499.118 80 C 494.448 80, 490.926 80.474, 490.200 81.200 M 625.756 94.569 C 624.246 95.388, 622.173 97.733, 621.150 99.779 C 620.126 101.826, 619.010 104.963, 618.669 106.750 L 618.050 110 632.525 110 C 643.839 110, 647 109.712, 647 108.682 C 647 107.956, 646.301 105.010, 645.447 102.135 C 644.279 98.201, 643.103 96.424, 640.697 94.957 C 638.739 93.763, 635.756 93.022, 633 93.044 C 630.525 93.064, 627.265 93.750, 625.756 94.569" stroke="none" fill="#d4fc04" fill-rule="evenodd"/></svg>