<svg xmlns="http://www.w3.org/2000/svg" width="724" height="198" viewBox="0 0 724 198" version="1.1"><path d="M 273.869 102.271 C 274.294 102.695, 284.060 102.919, 295.571 102.769 L 316.500 102.496 294.798 101.998 C 282.862 101.724, 273.444 101.847, 273.869 102.271" stroke="none" fill="#fc4c04" fill-rule="evenodd"/><path d="M 106.006 4.150 C 104.353 6.433, 103 8.923, 103 9.683 C 103 10.444, 101.439 12.627, 99.532 14.535 C 97.435 16.632, 96.291 18.595, 96.639 19.501 C 97.003 20.450, 96.624 21, 95.607 21 C 94.723 21, 94 21.437, 94 21.971 C 94 22.505, 92.692 24.867, 91.093 27.221 C 89.494 29.574, 86.344 34.344, 84.093 37.821 C 81.842 41.297, 80 44.785, 80 45.571 C 80 46.357, 79.475 47, 78.833 47 C 78.192 47, 77.919 47.252, 78.227 47.561 C 78.536 47.869, 77.711 49.198, 76.394 50.515 C 75.077 51.832, 74 53.795, 74 54.878 C 74 55.960, 72.650 58.196, 71 59.846 C 69.350 61.496, 68 63.781, 68 64.923 C 68 66.065, 67.662 67.001, 67.250 67.002 C 66.838 67.003, 65.263 68.962, 63.750 71.357 C 62.237 73.751, 61 76.402, 61 77.248 C 61 78.094, 60.425 79.007, 59.723 79.276 C 59.020 79.546, 57.127 82.406, 55.516 85.633 C 53.904 88.860, 52.117 91.831, 51.543 92.235 C 50.885 92.698, 50.870 92.981, 51.500 93 C 52.059 93.017, 52.002 93.355, 51.371 93.765 C 50.751 94.169, 48.193 98.212, 45.689 102.750 C 43.184 107.287, 41.361 111, 41.639 111 C 41.916 111, 41.436 111.706, 40.573 112.570 C 39.709 113.433, 38.708 115.316, 38.347 116.753 C 37.986 118.190, 36.626 120.936, 35.324 122.855 C 34.021 124.774, 31.581 129.304, 29.900 132.922 C 28.219 136.540, 26.218 140.625, 25.454 142 C 24.690 143.375, 23.318 146.075, 22.405 148 C 21.493 149.925, 20.128 152.694, 19.373 154.154 C 18.618 155.614, 18 157.527, 18 158.404 C 18 159.282, 17.550 160, 17 160 C 16.450 160, 16.069 160.338, 16.154 160.750 C 16.239 161.162, 15.538 163.300, 14.596 165.500 C 13.654 167.700, 11.936 171.525, 10.779 174 C 9.622 176.475, 8.048 179.738, 7.280 181.252 C 6.512 182.766, 6.162 184.453, 6.501 185.002 C 6.840 185.551, 6.674 186, 6.131 186 C 5.588 186, 4.211 188.492, 3.072 191.538 C 1.932 194.583, 1 197.283, 1 197.538 C 1 197.792, 8.388 198, 17.417 198 L 33.835 198 35.589 193.250 C 36.555 190.638, 37.756 187.957, 38.258 187.294 C 38.761 186.630, 38.882 185.618, 38.527 185.044 C 38.172 184.470, 38.305 184, 38.822 184 C 39.338 184, 41.052 180.851, 42.631 177.003 L 45.500 170.007 63.858 170.003 L 82.217 170 81.640 172.300 C 81.322 173.565, 80.745 177.728, 80.358 181.550 C 79.970 185.373, 79.619 190.525, 79.576 193 L 79.500 197.500 94.250 197.777 C 108.979 198.053, 109 198.050, 109.130 195.777 C 109.202 194.525, 109.329 192.375, 109.414 191 C 109.498 189.625, 109.834 188.050, 110.160 187.500 C 110.487 186.950, 111.082 183.350, 111.483 179.500 C 111.884 175.650, 112.400 171.600, 112.630 170.500 C 112.860 169.400, 113.466 165.350, 113.977 161.500 C 114.488 157.650, 115.568 151.364, 116.377 147.531 C 117.186 143.698, 117.618 140.191, 117.338 139.737 C 117.057 139.284, 117.237 138.370, 117.738 137.706 C 118.238 137.043, 118.756 134.660, 118.889 132.411 C 119.021 130.162, 119.258 127.687, 119.414 126.911 C 119.570 126.135, 120.073 124.623, 120.532 123.551 C 120.991 122.479, 121.397 120.004, 121.433 118.051 C 121.470 116.098, 121.826 114.256, 122.224 113.957 C 122.623 113.658, 123.480 110.058, 124.130 105.957 C 124.780 101.856, 125.354 97.305, 125.406 95.845 C 125.458 94.386, 125.874 93.422, 126.331 93.705 C 126.789 93.987, 127.025 93.382, 126.856 92.359 C 126.688 91.337, 126.909 89.927, 127.348 89.228 C 127.787 88.528, 128.323 86.053, 128.540 83.728 C 128.757 81.402, 129.406 77.254, 129.982 74.510 C 130.558 71.765, 130.812 68.952, 130.546 68.260 C 130.280 67.567, 130.499 67, 131.031 67 C 131.564 67, 131.929 66.663, 131.841 66.250 C 131.754 65.838, 131.967 64.825, 132.314 64 C 132.661 63.175, 133.404 59.800, 133.965 56.500 C 134.527 53.200, 135.446 48.254, 136.008 45.510 C 136.570 42.765, 136.823 39.981, 136.571 39.324 C 136.319 38.667, 136.566 37.978, 137.121 37.793 C 137.676 37.608, 138.274 35.531, 138.449 33.177 C 138.625 30.824, 139.015 28.652, 139.315 28.351 C 139.616 28.051, 139.620 27.173, 139.324 26.402 C 139.028 25.631, 139.242 25, 139.799 25 C 140.356 25, 141.117 22.638, 141.490 19.750 C 141.863 16.862, 142.832 11.857, 143.643 8.626 C 144.455 5.396, 144.881 2.133, 144.591 1.376 C 144.170 0.280, 140.492 0, 126.538 0 L 109.013 0 106.006 4.150 M 484.676 45.153 C 481.473 45.589, 476.242 46.898, 473.053 48.061 C 469.864 49.224, 464.554 52.360, 461.254 55.030 C 457.954 57.701, 453.498 62.499, 451.351 65.693 C 449.204 68.887, 446.892 72.771, 446.211 74.325 C 445.531 75.879, 445.232 77.566, 445.546 78.075 C 445.861 78.584, 445.693 79, 445.173 79 C 444.652 79, 444.001 80.237, 443.724 81.750 C 443.447 83.263, 440.513 97.775, 437.203 114 C 433.893 130.225, 430.969 145.579, 430.705 148.120 C 430.442 150.661, 430.652 155.087, 431.174 157.956 C 431.695 160.825, 433.046 164.946, 434.176 167.114 C 435.306 169.281, 438.091 172.562, 440.365 174.403 C 442.639 176.244, 445.969 178.497, 447.765 179.409 C 449.560 180.321, 453.160 181.354, 455.765 181.705 C 458.369 182.056, 462.525 182.315, 465 182.280 C 467.475 182.245, 472.068 181.987, 475.206 181.706 C 478.564 181.406, 483.296 180.025, 486.706 178.348 C 489.893 176.782, 493.095 174.938, 493.821 174.250 C 494.548 173.562, 495.514 173, 495.967 173 C 496.420 173, 498.750 171.042, 501.145 168.649 C 503.540 166.256, 505.950 163.665, 506.500 162.891 C 507.050 162.116, 508.958 158.562, 510.740 154.991 C 512.987 150.489, 514.909 143.903, 517.010 133.500 C 518.677 125.250, 520.284 116.925, 520.581 115 C 520.878 113.075, 521.330 110.489, 521.585 109.253 C 521.840 108.017, 522.251 105.992, 522.497 104.753 C 522.743 103.514, 523.171 101.261, 523.448 99.747 C 523.725 98.233, 524.176 95.870, 524.451 94.495 C 524.726 93.120, 525.160 90.983, 525.416 89.747 C 525.672 88.511, 526.378 85.507, 526.986 83.072 C 527.593 80.636, 527.824 75.911, 527.499 72.572 C 527.173 69.232, 526.192 64.588, 525.318 62.250 C 524.444 59.913, 523.339 58, 522.864 58 C 522.389 58, 522 57.489, 522 56.865 C 522 56.240, 520.763 54.652, 519.250 53.336 C 517.737 52.020, 516.050 50.618, 515.500 50.222 C 514.950 49.825, 513.375 48.928, 512 48.229 C 510.625 47.530, 508.375 46.701, 507 46.386 C 505.625 46.071, 502.354 45.637, 499.732 45.423 C 497.109 45.208, 493.959 44.881, 492.732 44.695 C 491.504 44.510, 487.879 44.716, 484.676 45.153 M 162 46.281 C 162 46.464, 159.793 57.613, 157.095 71.057 C 154.398 84.500, 151.931 97.075, 151.613 99 C 151.296 100.925, 150.795 103.625, 150.500 105 C 150.205 106.375, 149.704 109.075, 149.385 111 C 149.067 112.925, 145.925 128.880, 142.403 146.456 C 138.882 164.032, 136 178.995, 136 179.706 C 136 180.693, 138.851 181, 148 181 C 156.893 181, 160.020 180.676, 160.077 179.750 C 160.119 179.063, 160.301 177.825, 160.481 177 C 160.662 176.175, 161.083 174.150, 161.417 172.500 C 161.751 170.850, 162.286 167.925, 162.606 166 C 162.926 164.075, 164.661 155.172, 166.463 146.215 C 168.264 137.258, 169.909 129.757, 170.120 129.547 C 170.330 129.337, 175.901 129.048, 182.501 128.904 C 189.100 128.760, 197.448 128.088, 201.050 127.410 C 204.653 126.731, 209.490 125.191, 211.800 123.987 C 214.110 122.783, 216 121.367, 216 120.840 C 216 120.313, 216.398 120.128, 216.885 120.429 C 217.372 120.730, 220.117 118.394, 222.986 115.238 C 225.855 112.082, 229.066 107.813, 230.122 105.750 C 231.177 103.688, 231.751 102, 231.398 102 C 231.044 102, 231.205 101.438, 231.755 100.750 C 232.305 100.063, 233.461 96.575, 234.324 93 C 235.187 89.425, 236.384 83.706, 236.983 80.291 C 237.780 75.754, 237.768 72.334, 236.941 67.585 C 236.319 64.011, 235.178 60.562, 234.405 59.921 C 233.632 59.280, 233 58.203, 233 57.527 C 233 56.852, 231.579 55.219, 229.842 53.900 C 228.105 52.580, 226.140 50.965, 225.475 50.312 C 224.810 49.659, 221.619 48.443, 218.383 47.612 C 213.940 46.470, 206.319 46.081, 187.250 46.024 C 173.363 45.982, 162 46.098, 162 46.281 M 260 46.307 C 260 46.475, 257.793 57.613, 255.095 71.057 C 252.398 84.500, 249.931 97.075, 249.613 99 C 249.296 100.925, 248.795 103.625, 248.500 105 C 248.205 106.375, 247.704 109.075, 247.385 111 C 247.067 112.925, 243.925 128.880, 240.403 146.456 C 236.882 164.032, 234 179, 234 179.719 C 234 180.774, 241.127 180.974, 271.207 180.762 L 308.413 180.500 310.660 169.500 C 311.896 163.450, 312.928 158.148, 312.953 157.717 C 312.979 157.286, 301.520 157.061, 287.488 157.217 C 270.786 157.402, 262.101 157.155, 262.339 156.500 C 262.538 155.950, 263.986 148.863, 265.557 140.750 L 268.412 126 289.584 126 C 305.334 126, 311.005 125.680, 311.730 124.750 C 312.266 124.063, 313.472 119.450, 314.410 114.500 C 315.348 109.550, 316.310 104.825, 316.547 104 C 316.922 102.695, 314.298 102.538, 296.316 102.790 C 284.951 102.950, 275.120 102.876, 274.469 102.627 C 273.587 102.288, 273.765 99.918, 275.166 93.336 C 276.200 88.476, 277.756 81.237, 278.624 77.250 L 280.201 70 305.659 70 C 319.662 70, 330.891 69.633, 330.615 69.185 C 330.338 68.737, 331.211 63.504, 332.556 57.556 C 333.900 51.607, 335 46.574, 335 46.370 C 335 46.167, 318.125 46, 297.500 46 C 276.875 46, 260 46.138, 260 46.307 M 339.204 112.672 C 331.891 149.427, 325.929 179.838, 325.954 180.250 C 325.979 180.662, 331.175 181, 337.500 181 C 343.825 181, 349 180.862, 349 180.693 C 349 180.525, 351.242 169.162, 353.983 155.443 C 356.724 141.725, 359.207 129.487, 359.502 128.250 C 359.983 126.233, 360.646 126, 365.908 126 L 371.777 126 372.432 129.492 C 372.793 131.412, 373.106 133.202, 373.128 133.469 C 373.151 133.737, 373.825 136.328, 374.626 139.228 C 375.428 142.127, 376.258 145.625, 376.471 147 C 376.685 148.375, 377.356 151.525, 377.964 154 C 378.571 156.475, 379.243 159.400, 379.455 160.500 C 379.668 161.600, 380.111 163.625, 380.439 165 C 380.768 166.375, 381.293 169.038, 381.606 170.917 C 381.920 172.796, 382.618 175.496, 383.159 176.917 C 383.699 178.338, 384.108 179.725, 384.067 180 C 384.027 180.275, 390.109 180.625, 397.583 180.779 L 411.172 181.058 410.587 176.779 C 410.264 174.425, 408.885 168.339, 407.521 163.253 C 406.156 158.167, 404.782 152.767, 404.468 151.253 C 404.153 149.739, 403.782 147.951, 403.643 147.279 C 403.505 146.607, 403.109 145.776, 402.765 145.431 C 402.420 145.086, 402.380 144.173, 402.676 143.402 C 402.972 142.631, 402.689 142, 402.048 142 C 401.407 142, 401.141 141.581, 401.457 141.070 C 401.773 140.558, 401.077 136.620, 399.909 132.320 C 398.742 128.019, 397.722 124.207, 397.643 123.850 C 397.565 123.492, 397.844 123.166, 398.264 123.124 C 398.684 123.083, 401.159 121.874, 403.764 120.438 C 406.369 119.002, 410.434 115.953, 412.798 113.663 C 415.162 111.373, 417.816 108.150, 418.697 106.500 C 419.577 104.850, 421.122 101.925, 422.130 99.999 C 423.138 98.074, 424.112 95.129, 424.296 93.454 C 424.479 91.780, 424.909 89.957, 425.251 89.404 C 425.592 88.850, 426.393 85.406, 427.030 81.750 C 427.667 78.093, 427.931 72.582, 427.617 69.501 C 427.303 66.421, 426.288 62.235, 425.361 60.200 C 424.434 58.165, 422.539 55.263, 421.151 53.750 C 419.762 52.237, 418.090 51, 417.435 51 C 416.781 51, 415.668 50.305, 414.962 49.454 C 414.257 48.604, 413.106 48.129, 412.404 48.398 C 411.703 48.667, 410.950 48.350, 410.732 47.694 C 410.440 46.816, 402.688 46.413, 381.417 46.172 L 352.500 45.844 339.204 112.672 M 553 46.307 C 553 46.475, 550.793 57.613, 548.095 71.057 C 545.398 84.500, 542.931 97.075, 542.613 99 C 542.296 100.925, 541.795 103.625, 541.500 105 C 541.205 106.375, 540.704 109.075, 540.385 111 C 540.067 112.925, 536.925 128.880, 533.403 146.456 C 529.882 164.032, 527 178.995, 527 179.706 C 527 180.741, 534.360 181, 563.768 181 L 600.537 181 602.341 170.750 C 603.333 165.113, 604.368 159.713, 604.640 158.750 C 605.102 157.117, 603.470 157, 580.209 157 L 555.284 157 560.139 132.817 C 562.809 119.516, 567.698 95.554, 571.004 79.567 C 574.310 63.580, 577.245 49.487, 577.527 48.250 C 578.036 46.009, 577.987 46, 565.519 46 C 558.634 46, 553 46.138, 553 46.307 M 489.879 68.454 C 489.659 68.674, 487.532 69.078, 485.153 69.351 C 482.702 69.633, 479.060 71.072, 476.753 72.671 C 474.121 74.495, 471.854 77.265, 470.349 80.497 C 469.068 83.249, 468.015 86.513, 468.010 87.750 C 468.004 88.987, 467.564 90, 467.031 90 C 466.499 90, 466.283 90.574, 466.553 91.277 C 466.822 91.979, 466.124 96.816, 465.001 102.027 C 463.878 107.237, 462.749 112.400, 462.492 113.500 C 462.234 114.600, 460.915 121.125, 459.561 128 C 458.207 134.875, 457.017 142.300, 456.918 144.500 C 456.819 146.700, 456.910 149.157, 457.119 149.961 C 457.329 150.764, 458.175 152.162, 459 153.067 C 459.825 153.972, 461.625 155.428, 463 156.303 C 464.375 157.179, 467.300 157.995, 469.500 158.117 C 471.850 158.248, 475.459 157.469, 478.249 156.227 C 480.861 155.064, 484.095 152.850, 485.435 151.307 C 486.775 149.763, 488.772 145.800, 489.873 142.500 C 490.973 139.200, 492.161 134.250, 492.512 131.500 C 492.862 128.750, 493.408 125.825, 493.723 125 C 494.039 124.175, 494.198 122.487, 494.077 121.250 C 493.956 120.013, 494.277 119, 494.790 119 C 495.303 119, 495.508 117.875, 495.245 116.500 C 494.982 115.125, 495.207 114, 495.745 114 C 496.283 114, 496.508 112.875, 496.245 111.500 C 495.982 110.125, 496.207 109, 496.745 109 C 497.283 109, 497.508 107.875, 497.245 106.500 C 496.982 105.125, 497.207 104, 497.745 104 C 498.283 104, 498.508 102.875, 498.245 101.500 C 497.982 100.125, 498.207 99, 498.745 99 C 499.283 99, 499.508 97.875, 499.245 96.500 C 498.972 95.076, 499.234 94, 499.852 94 C 500.449 94, 500.720 93.433, 500.454 92.740 C 500.188 92.048, 500.371 89.339, 500.860 86.721 C 501.400 83.829, 501.372 80.195, 500.790 77.462 C 500.033 73.915, 499.161 72.606, 496.665 71.274 C 494.924 70.344, 493.275 69.558, 493 69.527 C 492.725 69.495, 492 69.151, 491.389 68.762 C 490.779 68.373, 490.099 68.234, 489.879 68.454 M 383.975 69.778 L 371.450 70.056 368.644 83.778 C 367.100 91.325, 365.600 98.513, 365.310 99.750 C 364.786 101.986, 364.857 102, 376.576 102 C 386.606 102, 389.034 101.678, 392.818 99.846 C 395.265 98.661, 397.485 96.861, 397.751 95.846 C 398.016 94.831, 398.556 94, 398.950 94 C 399.344 94, 399.707 93.438, 399.756 92.750 C 399.804 92.063, 400.394 88.766, 401.066 85.425 C 401.738 82.083, 401.984 77.808, 401.613 75.925 C 401.242 74.041, 399.939 71.825, 398.719 71 C 396.977 69.823, 393.805 69.560, 383.975 69.778 M 182 70.393 C 182 70.608, 180.425 78.146, 178.500 87.142 C 176.575 96.138, 175 103.836, 175 104.249 C 175 104.662, 180.226 105, 186.614 105 C 196.615 105, 198.754 104.704, 202.022 102.868 C 204.384 101.540, 206.402 99.370, 207.370 97.118 C 208.225 95.128, 209.432 91.501, 210.053 89.058 C 210.673 86.615, 211.198 82.790, 211.220 80.558 C 211.242 78.326, 210.892 75.600, 210.442 74.500 C 209.992 73.400, 208.921 71.952, 208.062 71.282 C 207.034 70.480, 202.313 70.053, 194.250 70.032 C 187.512 70.014, 182 70.177, 182 70.393 M 620.455 77.455 C 618.453 79.456, 618 80.908, 618 85.320 C 618 89.279, 618.556 91.437, 620.073 93.365 C 621.970 95.778, 622.755 96, 629.381 96 C 633.767 96, 637.323 95.484, 638.408 94.691 C 639.393 93.971, 640.511 91.608, 640.893 89.441 C 641.274 87.273, 641.288 83.737, 640.923 81.582 C 640.559 79.427, 639.441 77.064, 638.439 76.332 C 637.342 75.529, 633.893 75, 629.763 75 C 623.819 75, 622.583 75.326, 620.455 77.455 M 95 78.531 C 95 79.374, 94.325 80.322, 93.500 80.638 C 92.675 80.955, 92 82.018, 92 83 C 92 83.982, 91.325 85.045, 90.500 85.362 C 89.675 85.678, 89 86.648, 89 87.517 C 89 88.385, 87.328 91.662, 85.285 94.798 C 83.242 97.934, 80.789 102.188, 79.834 104.250 C 78.879 106.313, 77.626 108, 77.049 108 C 76.472 108, 76 108.873, 76 109.941 C 76 111.009, 75.585 112.138, 75.078 112.452 C 74.571 112.765, 72.698 116.015, 70.916 119.673 C 69.133 123.332, 66.845 127.155, 65.830 128.170 C 64.815 129.185, 63.843 130.948, 63.669 132.090 C 63.494 133.231, 62.892 134.465, 62.330 134.832 C 61.768 135.200, 61.002 136.751, 60.628 138.279 L 59.947 141.058 73.224 140.779 C 82.522 140.584, 86.436 140.157, 86.285 139.355 C 86.167 138.726, 86.964 132.876, 88.057 126.355 C 89.150 119.835, 90.233 113.825, 90.464 113 C 90.696 112.175, 91.169 109.025, 91.515 106 C 91.862 102.975, 92.757 97.575, 93.504 94 C 94.252 90.425, 95.146 85.781, 95.490 83.679 C 95.835 81.577, 96.364 79.215, 96.666 78.429 C 96.967 77.643, 96.716 77, 96.107 77 C 95.498 77, 95 77.689, 95 78.531 M 680.630 105.635 C 677.951 106.458, 673.978 108.310, 671.800 109.751 C 669.623 111.192, 666.564 114.227, 665.004 116.494 C 663.444 118.762, 661.363 123.291, 660.379 126.559 C 659.153 130.634, 658.592 135.798, 658.592 143 C 658.592 150.153, 659.154 155.369, 660.357 159.364 C 661.328 162.588, 663.303 167.012, 664.747 169.193 C 666.190 171.375, 669.213 174.426, 671.464 175.975 C 673.715 177.524, 677.988 179.513, 680.960 180.395 C 684.379 181.411, 690.060 181.995, 696.432 181.985 C 701.969 181.977, 709.423 181.282, 712.995 180.440 C 716.567 179.598, 720.505 178.244, 721.745 177.431 C 723.728 176.132, 724 175.113, 724 168.977 C 724 162.024, 723.990 162, 721.250 162.033 C 719.737 162.051, 716.025 162.936, 713 164 C 709.246 165.321, 704.770 165.945, 698.898 165.967 C 691.596 165.995, 689.790 165.659, 686.952 163.747 C 685.113 162.507, 682.684 159.920, 681.554 157.997 C 679.804 155.017, 679.500 152.799, 679.500 143 C 679.500 133.201, 679.804 130.983, 681.554 128.003 C 682.684 126.080, 685.113 123.493, 686.952 122.253 C 689.790 120.341, 691.596 120.005, 698.898 120.033 C 704.770 120.055, 709.246 120.679, 713 122 C 716.025 123.064, 719.737 123.949, 721.250 123.967 C 723.990 124, 724 123.976, 724 117.023 C 724 110.887, 723.728 109.868, 721.745 108.569 C 720.505 107.756, 716.567 106.402, 712.995 105.560 C 709.203 104.667, 702.130 104.052, 696 104.084 C 689.673 104.117, 683.565 104.734, 680.630 105.635 M 620.200 107.200 C 619.312 108.088, 619 117.533, 619 143.500 C 619 169.467, 619.312 178.912, 620.200 179.800 C 620.926 180.526, 624.448 181, 629.118 181 C 633.363 181, 637.548 180.727, 638.418 180.393 C 639.820 179.855, 640 175.666, 640 143.500 C 640 111.334, 639.820 107.145, 638.418 106.607 C 637.548 106.273, 633.363 106, 629.118 106 C 624.448 106, 620.926 106.474, 620.200 107.200" stroke="none" fill="#fc5404" fill-rule="evenodd"/></svg>