<svg xmlns="http://www.w3.org/2000/svg" width="2361" height="512" viewBox="0 0 2361 512" version="1.1"><path d="M 2225.250 136.294 L 2198 139.325 2198 256.556 C 2198 362.532, 2198.152 373.844, 2199.582 374.393 C 2200.452 374.727, 2236.190 375, 2279 375 C 2321.810 375, 2357.548 374.727, 2358.418 374.393 C 2359.812 373.858, 2360 370.194, 2360 343.500 C 2360 316.806, 2359.812 313.142, 2358.418 312.607 C 2357.548 312.273, 2334.584 312, 2307.387 312 C 2261.232 312, 2257.889 311.883, 2257.219 310.250 C 2256.823 309.288, 2256.500 289.451, 2256.500 266.169 C 2256.500 225.420, 2256.573 223.785, 2258.441 222.419 C 2260.054 221.240, 2268.592 221, 2308.991 221 C 2345.465 221, 2357.900 220.700, 2358.800 219.800 C 2359.674 218.926, 2360 211.297, 2360 191.734 C 2360 175.127, 2359.605 164.130, 2358.965 162.934 C 2357.963 161.063, 2356.354 161, 2309.156 161 C 2268.646 161, 2260.053 160.760, 2258.441 159.583 C 2256.732 158.335, 2256.460 156.661, 2256.168 145.583 C 2255.878 134.568, 2255.629 133.016, 2254.168 133.131 C 2253.251 133.204, 2240.238 134.627, 2225.250 136.294 M 2156.131 143.835 C 2125.009 147.281, 2123.656 147.519, 2120.982 150.016 C 2119.453 151.445, 2115.344 154.152, 2111.851 156.033 L 2105.500 159.452 2083.302 159.833 L 2061.104 160.215 2058.611 157.526 L 2056.119 154.836 2027.886 157.924 C 2012.359 159.623, 1999.394 161.272, 1999.077 161.589 C 1998.760 161.907, 1998.348 209.516, 1998.161 267.387 C 1997.863 360.069, 1998.002 372.757, 1999.326 373.856 C 2000.496 374.826, 2011.995 375.024, 2051.164 374.749 C 2084.363 374.515, 2102.692 374.016, 2105 373.283 C 2106.925 372.671, 2111.866 371.375, 2115.980 370.403 C 2120.094 369.431, 2127.294 366.609, 2131.980 364.134 C 2136.666 361.658, 2143.875 357.072, 2148 353.943 C 2152.125 350.814, 2157.977 345.609, 2161.005 342.377 C 2164.033 339.145, 2167.987 334.475, 2169.792 332 C 2171.596 329.525, 2174.856 324.672, 2177.036 321.216 C 2179.216 317.760, 2181 314.545, 2181 314.071 C 2181 313.597, 2182.299 310.125, 2183.886 306.355 C 2185.473 302.585, 2187.543 295.675, 2188.485 291 C 2189.620 285.364, 2190.219 277.446, 2190.261 267.500 C 2190.305 257.320, 2189.793 249.825, 2188.669 244.175 C 2187.759 239.597, 2185.661 232.630, 2184.007 228.694 C 2182.353 224.758, 2181 221.135, 2181 220.643 C 2181 220.150, 2178.665 215.867, 2175.811 211.124 C 2172.957 206.381, 2170.138 202.050, 2169.546 201.500 C 2168.953 200.950, 2167.014 198.635, 2165.235 196.356 C 2163.456 194.077, 2162 191.582, 2162 190.811 C 2162 190.041, 2164.151 187.083, 2166.780 184.238 C 2169.409 181.394, 2173.373 176.464, 2175.589 173.283 C 2177.806 170.102, 2181.108 164.604, 2182.927 161.066 C 2184.746 157.527, 2187.082 152.169, 2188.117 149.159 C 2189.153 146.149, 2190 142.857, 2190 141.843 C 2190 140.830, 2189.662 140.057, 2189.250 140.126 C 2188.838 140.195, 2173.934 141.864, 2156.131 143.835 M 1958 165.517 C 1942.325 167.326, 1929.388 168.850, 1929.250 168.903 C 1929.112 168.956, 1929.001 194.537, 1929.003 225.750 C 1929.005 275.409, 1928.796 283.375, 1927.328 289.500 C 1926.406 293.350, 1924.665 298.084, 1923.458 300.021 C 1922.251 301.957, 1919.099 305.676, 1916.453 308.285 C 1913.807 310.894, 1909.166 314.239, 1906.141 315.720 C 1901.506 317.987, 1899.288 318.418, 1892.070 318.456 C 1884.560 318.495, 1882.759 318.136, 1877.513 315.560 C 1874.220 313.944, 1869.466 310.561, 1866.949 308.044 C 1864.432 305.527, 1860.713 300.152, 1858.686 296.099 L 1855 288.731 1855 232.866 C 1855 188.840, 1854.735 177, 1853.750 177 C 1853.063 177, 1840.199 178.350, 1825.165 180 C 1810.130 181.650, 1797.418 183, 1796.915 183 C 1796.380 183, 1796 196.715, 1796 216 C 1796 234.150, 1795.888 249.095, 1795.750 249.212 C 1795.612 249.329, 1782.225 249.666, 1766 249.962 L 1736.500 250.500 1735.941 268 C 1735.634 277.625, 1735.014 286.400, 1734.563 287.500 C 1734.112 288.600, 1732.459 292.145, 1730.888 295.377 C 1729.318 298.610, 1726.408 303.237, 1724.422 305.660 C 1722.436 308.084, 1718.143 311.800, 1714.882 313.919 C 1710.200 316.962, 1707.597 317.917, 1702.504 318.463 C 1698.765 318.863, 1693.828 318.691, 1690.754 318.053 C 1687.838 317.447, 1682.989 315.474, 1679.976 313.667 C 1676.964 311.859, 1672.475 307.851, 1670 304.759 C 1666.830 300.799, 1664.835 296.924, 1663.250 291.649 C 1661.067 284.382, 1661 282.874, 1661 240.944 L 1661 197.728 1656.750 198.293 C 1654.412 198.603, 1640.872 200.095, 1626.661 201.607 L 1600.822 204.357 1601.403 248.037 C 1601.964 290.187, 1602.069 292.029, 1604.405 300.609 C 1605.736 305.499, 1607.482 311.750, 1608.285 314.500 C 1609.088 317.250, 1611.682 323.100, 1614.051 327.500 C 1616.419 331.900, 1619.514 336.971, 1620.929 338.768 C 1622.343 340.566, 1625.722 344.616, 1628.438 347.768 C 1631.154 350.921, 1635.966 355.525, 1639.131 358 C 1642.296 360.475, 1646.824 363.874, 1649.193 365.554 C 1651.562 367.233, 1657.398 370.269, 1662.163 372.299 C 1666.927 374.330, 1674.044 376.668, 1677.978 377.495 C 1682.214 378.386, 1690.379 379, 1698 379 C 1705.700 379, 1713.807 378.385, 1718.185 377.469 C 1722.208 376.628, 1729.100 374.288, 1733.500 372.270 C 1737.900 370.252, 1745.094 366.109, 1749.487 363.065 C 1753.879 360.020, 1760.742 354.152, 1764.737 350.026 C 1768.732 345.899, 1772 342.215, 1772 341.838 C 1772 341.462, 1773.085 339.864, 1774.410 338.289 C 1775.736 336.714, 1778.226 332.967, 1779.944 329.962 C 1781.662 326.958, 1783.917 322.700, 1784.955 320.500 C 1785.994 318.300, 1787.804 313.350, 1788.978 309.500 C 1790.152 305.650, 1791.730 300.925, 1792.484 299 C 1793.238 297.075, 1794.144 294.173, 1794.496 292.552 C 1794.973 290.362, 1795.360 289.964, 1796.003 291.004 C 1796.479 291.774, 1797.154 294.676, 1797.503 297.452 C 1797.853 300.228, 1798.611 304.075, 1799.189 306 C 1799.766 307.925, 1801.535 312.344, 1803.119 315.820 C 1804.704 319.296, 1806 322.474, 1806 322.883 C 1806 323.292, 1807.877 326.748, 1810.172 330.563 C 1812.466 334.378, 1816.714 340.480, 1819.612 344.121 C 1822.509 347.763, 1827.269 352.755, 1830.190 355.214 C 1833.110 357.673, 1838.093 361.574, 1841.263 363.883 C 1844.432 366.193, 1849.157 368.964, 1851.763 370.041 C 1854.368 371.118, 1857.369 372.505, 1858.432 373.122 C 1859.494 373.739, 1861.744 374.673, 1863.432 375.198 C 1865.119 375.723, 1868.975 376.777, 1872 377.540 C 1875.314 378.377, 1882.938 378.943, 1891.185 378.964 C 1899.572 378.986, 1907.594 378.427, 1911.909 377.519 C 1915.780 376.705, 1922.897 374.338, 1927.724 372.260 C 1932.551 370.182, 1939.159 366.686, 1942.409 364.491 C 1945.658 362.296, 1951.897 357.125, 1956.272 353 C 1960.647 348.875, 1966.512 342.130, 1969.306 338.010 C 1972.099 333.891, 1976.163 326.916, 1978.336 322.510 C 1980.773 317.571, 1983.431 309.707, 1985.269 302 C 1987.925 290.860, 1988.302 287.270, 1988.738 269 C 1989.006 257.725, 1988.897 229.038, 1988.495 205.250 C 1988.093 181.462, 1987.480 162.051, 1987.132 162.114 C 1986.784 162.177, 1973.675 163.708, 1958 165.517 M 1545.250 210.345 L 1508 214.448 1507.989 353.974 C 1507.983 430.713, 1507.712 495.109, 1507.386 497.076 C 1506.956 499.680, 1507.250 501.107, 1508.469 502.326 C 1510.012 503.869, 1518.047 504, 1611.380 504 C 1690.795 504, 1712.985 503.731, 1714.322 502.750 C 1715.888 501.601, 1716.005 498.097, 1715.763 459.500 L 1715.500 417.500 1650.500 417.249 C 1589.940 417.016, 1585.411 416.879, 1584.197 415.249 C 1583.135 413.824, 1583.025 394.305, 1583.604 309.750 C 1584.029 247.765, 1583.950 206.049, 1583.407 206.121 C 1582.908 206.187, 1565.737 208.088, 1545.250 210.345 M 1453 220.513 L 1415.500 224.568 1415.246 355.988 C 1415.107 428.269, 1414.608 487.792, 1414.138 488.262 C 1413.665 488.735, 1412.550 487.571, 1411.642 485.657 C 1410.739 483.755, 1410 480.886, 1410 479.283 C 1410 477.679, 1409.553 473.922, 1409.007 470.934 C 1408.461 467.945, 1406.649 456.275, 1404.980 445 C 1403.311 433.725, 1401.251 419.775, 1400.402 414 C 1399.552 408.225, 1398.200 399.225, 1397.397 394 C 1396.593 388.775, 1395.550 381.800, 1395.077 378.500 C 1394.605 375.200, 1393.721 369.800, 1393.112 366.500 C 1392.503 363.200, 1391.512 357.575, 1390.911 354 C 1390.310 350.425, 1389.178 343.225, 1388.395 338 C 1387.613 332.775, 1386.533 325.350, 1385.996 321.500 C 1385.459 317.650, 1384.779 313.374, 1384.485 311.997 C 1384.190 310.620, 1382.603 300.270, 1380.957 288.997 C 1379.312 277.724, 1377.259 263.775, 1376.396 258 C 1375.533 252.225, 1374.261 243.558, 1373.569 238.739 C 1372.877 233.920, 1372.129 229.825, 1371.906 229.638 C 1371.683 229.452, 1356.044 231, 1337.153 233.079 C 1318.263 235.159, 1302.551 237.116, 1302.238 237.429 C 1301.925 237.742, 1302.454 243.736, 1303.414 250.749 C 1304.374 257.762, 1305.789 268, 1306.557 273.500 C 1307.326 279, 1308.651 289.350, 1309.502 296.500 C 1310.353 303.650, 1312.172 318.275, 1313.545 329 C 1314.918 339.725, 1316.576 353.591, 1317.229 359.813 C 1318.249 369.533, 1318.211 371.255, 1316.958 372.047 C 1316.156 372.554, 1303.324 372.976, 1288.441 372.985 C 1268.322 372.996, 1260.958 372.679, 1259.730 371.750 C 1258.201 370.594, 1258.296 368.846, 1260.994 348.500 C 1262.599 336.400, 1264.374 323.350, 1264.939 319.500 C 1265.504 315.650, 1266.652 307.775, 1267.490 302 C 1268.328 296.225, 1269.701 286.775, 1270.542 281 C 1271.384 275.225, 1272.697 266.450, 1273.462 261.500 C 1274.226 256.550, 1275.246 249.688, 1275.728 246.250 C 1276.464 240.998, 1276.367 240, 1275.120 240 C 1274.304 240, 1258.756 241.593, 1240.568 243.540 C 1222.381 245.488, 1206.487 247.296, 1205.250 247.559 C 1203.481 247.936, 1202.999 248.729, 1202.994 251.269 C 1202.991 253.046, 1202.536 256.129, 1201.983 258.120 C 1201.430 260.111, 1200.552 264.836, 1200.032 268.620 C 1199.511 272.404, 1198.628 278.650, 1198.068 282.500 C 1197.509 286.350, 1196.595 291.975, 1196.038 295 C 1195.481 298.025, 1194.115 306.800, 1193.001 314.500 C 1191.887 322.200, 1190.277 332.775, 1189.423 338 C 1188.570 343.225, 1187.254 351.325, 1186.500 356 C 1185.746 360.675, 1184.408 369, 1183.527 374.500 C 1182.647 380, 1181.292 387.875, 1180.518 392 C 1179.743 396.125, 1178.380 404.225, 1177.489 410 C 1176.598 415.775, 1175.449 422.975, 1174.935 426 C 1174.421 429.025, 1171.725 446.275, 1168.944 464.333 C 1166.162 482.391, 1164.024 498.591, 1164.193 500.333 L 1164.500 503.500 1199.291 503.763 C 1221.445 503.930, 1234.772 503.657, 1235.981 503.010 C 1237.210 502.352, 1238.072 500.500, 1238.429 497.747 C 1238.732 495.411, 1239.624 488.550, 1240.411 482.500 C 1241.198 476.450, 1242.384 467.225, 1243.047 462 C 1243.709 456.775, 1244.880 451.488, 1245.649 450.250 L 1247.046 448 1287.832 448 C 1319.654 448, 1329.007 448.285, 1330.390 449.296 C 1331.822 450.343, 1332.718 454.906, 1335.054 473.046 C 1336.644 485.396, 1338.223 497.189, 1338.561 499.253 C 1339.010 501.987, 1339.764 503.151, 1341.338 503.539 C 1342.527 503.831, 1359.250 503.893, 1378.500 503.676 C 1397.750 503.458, 1413.950 503.281, 1414.500 503.282 C 1415.050 503.283, 1432.272 503.456, 1452.772 503.666 C 1482.322 503.969, 1490.145 503.784, 1490.529 502.774 C 1490.796 502.073, 1490.898 437.366, 1490.757 358.979 L 1490.500 216.458 1453 220.513 M 2060.338 220.999 C 2059.149 221.478, 2057.944 222.687, 2057.660 223.685 C 2057.376 224.683, 2056.999 244.490, 2056.822 267.699 C 2056.594 297.619, 2056.822 310.221, 2057.607 311.006 C 2058.367 311.767, 2065.267 312.018, 2079.607 311.807 C 2099.702 311.512, 2100.710 311.401, 2106 308.903 C 2109.025 307.474, 2113.806 304.221, 2116.624 301.674 C 2119.441 299.126, 2123.617 293.894, 2125.903 290.047 C 2128.402 285.839, 2130.491 280.751, 2131.144 277.276 C 2131.741 274.099, 2131.991 267.377, 2131.700 262.337 C 2131.330 255.929, 2130.539 251.870, 2129.069 248.837 C 2127.913 246.452, 2125.888 242.739, 2124.570 240.586 C 2123.251 238.434, 2119.595 234.473, 2116.444 231.784 C 2113.294 229.095, 2108.867 225.952, 2106.608 224.800 C 2104.349 223.647, 2100.025 222.111, 2097 221.388 C 2093.724 220.603, 2085.637 220.082, 2077 220.099 C 2069.025 220.114, 2061.527 220.519, 2060.338 220.999 M 1107.500 258.065 C 1088.800 260.176, 1072.936 261.926, 1072.246 261.952 C 1071.246 261.990, 1071.043 286.496, 1071.246 382.750 L 1071.500 503.500 1106 503.779 C 1124.975 503.933, 1141.513 503.811, 1142.750 503.510 L 1145 502.962 1145 378.481 C 1145 260.551, 1144.908 254.006, 1143.250 254.113 C 1142.287 254.176, 1126.200 255.954, 1107.500 258.065 M 837 287.536 C 791.075 292.646, 753.385 296.866, 753.245 296.914 C 753.105 296.961, 753.105 343.462, 753.245 400.250 L 753.500 503.500 789.382 503.763 C 815.033 503.951, 825.654 503.702, 826.632 502.890 C 827.770 501.946, 828 487.406, 828 416.526 L 828 331.297 833.619 320.899 C 836.709 315.179, 841.464 306.788, 844.186 302.250 C 846.907 297.712, 849.682 294, 850.352 294 C 851.021 294, 855.091 302.887, 859.396 313.750 C 863.701 324.613, 867.892 335.075, 868.709 337 C 869.526 338.925, 871.276 342.834, 872.597 345.687 C 873.919 348.540, 875 351.152, 875 351.492 C 875 351.832, 875.842 353.998, 876.872 356.305 C 877.902 358.612, 880.220 364.325, 882.023 369 C 883.827 373.675, 888.773 385.825, 893.015 396 C 897.257 406.175, 903.767 422.150, 907.482 431.500 C 911.197 440.850, 917.287 455.700, 921.015 464.500 C 924.743 473.300, 929.675 485.341, 931.975 491.257 C 934.414 497.530, 936.930 502.428, 938.013 503.007 C 939.148 503.614, 954.616 504, 977.852 504 C 998.744 504, 1016.548 503.727, 1017.418 503.393 C 1018.288 503.059, 1019 502.131, 1019 501.331 C 1019 500.531, 1017.848 497.317, 1016.440 494.188 C 1015.032 491.060, 1012.601 485.575, 1011.037 482 C 1009.473 478.425, 1006.844 472.350, 1005.194 468.500 C 1003.545 464.650, 1000.613 457.450, 998.680 452.500 C 996.748 447.550, 991.488 434.950, 986.993 424.500 C 982.498 414.050, 976.394 399.320, 973.428 391.766 C 970.463 384.212, 967.595 377.237, 967.056 376.266 C 966.516 375.295, 964.885 371.800, 963.430 368.500 C 961.976 365.200, 956.970 353.052, 952.306 341.504 C 947.642 329.957, 942.797 318.257, 941.538 315.504 C 940.280 312.752, 936.550 303.975, 933.250 296 C 929.950 288.025, 926.983 280.712, 926.656 279.750 C 926.266 278.598, 925.112 278.042, 923.281 278.122 C 921.752 278.189, 882.925 282.425, 837 287.536 M 496.500 324.574 C 455.250 329.157, 421.163 332.928, 420.750 332.954 C 420.337 332.979, 419.994 343.238, 419.987 355.750 C 419.976 375.677, 419.726 379.291, 417.976 384.875 C 416.877 388.381, 414.321 394.402, 412.297 398.254 C 410.273 402.107, 406.418 407.664, 403.731 410.604 C 401.045 413.543, 396.293 417.496, 393.173 419.388 C 390.053 421.279, 384.735 423.541, 381.356 424.413 C 377.976 425.286, 373.750 426, 371.963 426 C 370.177 426, 365.718 425.107, 362.053 424.016 C 358.389 422.925, 353.209 420.587, 350.544 418.821 C 347.878 417.055, 343.718 413.561, 341.300 411.055 C 338.882 408.550, 335.609 404.250, 334.027 401.500 C 332.445 398.750, 330.255 394.025, 329.162 391 C 328.069 387.975, 326.685 382.538, 326.087 378.918 C 325.489 375.298, 325 365.747, 325 357.693 L 325 343.050 322.250 343.536 C 320.738 343.803, 288.225 347.383, 250 351.492 C 211.775 355.600, 178.588 359.223, 176.250 359.542 L 172 360.123 172 368.851 C 172 373.652, 171.321 380.262, 170.491 383.540 C 169.662 386.818, 167.360 392.743, 165.376 396.707 C 163.393 400.670, 159.245 406.704, 156.159 410.114 C 153.073 413.524, 148.287 417.756, 145.524 419.518 C 142.761 421.280, 137.546 423.460, 133.936 424.361 C 130.326 425.263, 126.050 426, 124.433 426 C 122.816 426, 118.545 425.157, 114.941 424.126 C 111.337 423.096, 106.839 421.452, 104.944 420.474 C 103.050 419.497, 98.564 415.727, 94.976 412.098 C 91.002 408.079, 87.173 402.940, 85.178 398.949 C 83.377 395.346, 81.033 389.046, 79.969 384.949 C 78.905 380.852, 78.027 375.764, 78.017 373.642 C 78.002 370.157, 77.782 369.833, 75.750 370.302 C 74.513 370.587, 57.392 372.533, 37.705 374.627 L 1.910 378.434 2.516 383.967 C 2.849 387.010, 4.016 394.450, 5.109 400.500 C 6.203 406.550, 8.491 415.534, 10.194 420.463 C 11.897 425.393, 15.109 433.043, 17.333 437.463 C 19.556 441.884, 22.726 447.750, 24.378 450.500 C 26.030 453.250, 29.392 458.200, 31.851 461.500 C 34.309 464.800, 40.648 471.775, 45.938 477 C 51.228 482.225, 58.693 488.603, 62.528 491.174 C 66.363 493.745, 72.650 497.420, 76.500 499.339 C 80.350 501.259, 86.200 503.715, 89.500 504.796 C 92.800 505.877, 98.714 507.490, 102.643 508.381 C 107.527 509.488, 114.581 510, 124.946 510 C 135.028 510, 142.516 509.473, 147.303 508.425 C 151.261 507.559, 156.979 506.022, 160.009 505.010 C 163.039 503.998, 169.263 501.276, 173.840 498.961 C 178.417 496.645, 185.725 492.109, 190.080 488.880 C 194.435 485.651, 201.273 479.745, 205.274 475.755 C 209.276 471.765, 215.255 464.675, 218.561 460 C 221.867 455.325, 225.939 449.250, 227.609 446.500 C 229.278 443.750, 232.016 438.575, 233.692 435 C 235.367 431.425, 237.906 425.009, 239.333 420.743 C 240.761 416.476, 242.845 409.128, 243.964 404.414 C 245.084 399.699, 246.032 394.415, 246.070 392.671 C 246.109 390.927, 246.499 388.600, 246.938 387.500 C 247.570 385.913, 248.174 386.966, 249.867 392.608 C 251.040 396.517, 252 400.571, 252 401.615 C 252 402.660, 253.558 408.375, 255.463 414.314 C 257.368 420.254, 260.921 429.324, 263.359 434.470 C 265.797 439.616, 269.912 447.106, 272.505 451.114 C 275.098 455.122, 279.064 460.673, 281.320 463.450 C 283.575 466.228, 287.914 471.142, 290.960 474.372 C 294.007 477.601, 300.830 483.497, 306.123 487.474 C 311.416 491.451, 319.291 496.494, 323.623 498.680 C 327.955 500.867, 334.650 503.680, 338.500 504.932 C 342.350 506.184, 346.850 507.672, 348.500 508.237 C 350.150 508.803, 359.481 509.481, 369.236 509.744 C 383.673 510.133, 388.323 509.906, 394.236 508.520 C 398.231 507.584, 404.186 505.925, 407.470 504.834 C 410.753 503.743, 415.928 501.694, 418.970 500.280 C 422.011 498.866, 428.874 494.802, 434.220 491.250 C 440.727 486.926, 447.387 481.224, 454.363 474.003 C 460.096 468.069, 467.128 459.679, 469.990 455.357 C 472.852 451.036, 477.570 442.550, 480.475 436.500 C 483.379 430.450, 485.997 424.600, 486.293 423.500 C 486.589 422.400, 487.779 419.025, 488.936 416 C 490.094 412.975, 491.932 406.266, 493.021 401.091 C 494.109 395.916, 495.007 390.741, 495.015 389.591 C 495.024 388.441, 495.474 386.825, 496.015 386 C 496.882 384.679, 497.114 384.677, 497.950 385.978 C 498.472 386.791, 499.429 390.616, 500.075 394.478 C 500.721 398.340, 502.115 405.032, 503.171 409.348 C 504.228 413.665, 506.387 420.743, 507.969 425.078 C 509.551 429.413, 512.735 436.456, 515.044 440.730 C 517.353 445.003, 521.770 452.325, 524.860 457 C 527.949 461.675, 534.982 470.052, 540.489 475.616 C 546.399 481.588, 553.982 487.995, 559 491.258 C 563.675 494.298, 570.425 498.218, 574 499.968 C 577.575 501.718, 583.200 503.979, 586.500 504.992 C 589.800 506.005, 595.722 507.598, 599.660 508.531 C 605.537 509.923, 610.018 510.132, 624.660 509.699 C 635.934 509.366, 644.355 508.629, 647.539 507.697 C 650.311 506.886, 654.811 505.467, 657.539 504.543 C 660.268 503.619, 665.078 501.556, 668.228 499.958 C 671.379 498.360, 675.879 495.844, 678.228 494.368 C 680.578 492.891, 684.525 490.147, 687 488.270 C 689.475 486.392, 694.578 482.076, 698.340 478.678 C 702.101 475.280, 707.896 468.964, 711.217 464.642 C 714.537 460.320, 720.312 451.638, 724.049 445.348 C 727.786 439.057, 732.216 430.116, 733.895 425.478 C 735.573 420.840, 737.835 413.547, 738.921 409.272 C 740.008 404.998, 741.605 397, 742.472 391.500 C 743.667 383.913, 743.981 375.468, 743.774 356.500 L 743.500 331.500 706.772 331.238 L 670.044 330.975 669.552 333.238 C 669.282 334.482, 668.911 345.400, 668.729 357.500 C 668.416 378.363, 668.259 379.901, 665.700 387.269 C 664.216 391.541, 661.812 396.941, 660.357 399.269 C 658.902 401.596, 655.487 406.315, 652.766 409.755 C 649.660 413.683, 645.715 417.239, 642.160 419.314 C 639.047 421.131, 633.770 423.379, 630.434 424.309 C 627.098 425.239, 622.822 426, 620.931 426 C 619.041 426, 614.521 425.150, 610.889 424.111 C 607.256 423.072, 603.208 421.663, 601.892 420.979 C 600.576 420.295, 597.596 418.197, 595.269 416.316 C 592.942 414.436, 588.981 410.225, 586.468 406.959 C 583.955 403.693, 580.758 398.441, 579.364 395.288 C 577.969 392.134, 576.192 385.942, 575.415 381.527 C 574.418 375.858, 574.002 365.056, 574.001 344.750 C 574 322.353, 573.724 316.027, 572.750 316.121 C 572.063 316.187, 537.750 319.991, 496.500 324.574" stroke="none" fill="#fc5404" fill-rule="evenodd"/><path d="M 107.500 2.904 C 104.200 3.325, 99.700 4.250, 97.500 4.961 C 95.300 5.672, 91.475 6.929, 89 7.755 C 86.525 8.580, 81.618 10.566, 78.096 12.167 C 74.574 13.768, 67.897 17.603, 63.258 20.690 C 58.620 23.776, 50.864 30.171, 46.023 34.901 C 41.183 39.630, 35.382 45.891, 33.133 48.813 C 30.883 51.735, 26.631 58.260, 23.683 63.313 C 20.735 68.366, 16.901 75.461, 15.162 79.079 C 13.423 82.697, 12 86.191, 12 86.843 C 12 87.494, 11.576 88.809, 11.059 89.764 C 10.541 90.719, 9.424 93.975, 8.578 97 C 7.731 100.025, 6.339 106.042, 5.485 110.372 C 4.631 114.702, 3.508 123.702, 2.989 130.372 C 2.470 137.042, 2.035 195.487, 2.023 260.250 L 2 378 4.305 378 C 5.572 378, 21.210 376.427, 39.055 374.505 C 56.900 372.583, 72.963 370.763, 74.750 370.460 L 78 369.909 78.017 251.705 C 78.033 140.338, 78.140 133.092, 79.868 126.442 C 80.877 122.560, 82.825 117.148, 84.198 114.415 C 85.571 111.682, 87.846 107.658, 89.254 105.473 C 90.662 103.288, 93.134 100.089, 94.747 98.364 C 96.360 96.639, 99.439 94.138, 101.590 92.806 C 103.740 91.475, 107.540 89.623, 110.033 88.693 C 113.173 87.520, 117.621 87, 124.500 87 C 131.352 87, 135.839 87.523, 138.967 88.684 C 141.460 89.611, 145.300 91.584, 147.500 93.069 C 149.700 94.555, 154.007 98.409, 157.071 101.635 C 160.136 104.861, 164.063 110.425, 165.800 114 C 167.536 117.575, 169.641 123.182, 170.478 126.460 C 171.609 130.890, 172 137.958, 172 153.988 C 172 172.068, 172.257 175.921, 173.587 177.821 L 175.175 180.088 211.837 179.950 L 248.500 179.811 248.500 255.156 L 248.500 330.500 211.500 330.755 C 178.135 330.984, 174.377 331.175, 173.250 332.696 C 172.402 333.840, 172 338.528, 172 347.279 L 172 360.176 175.750 359.610 C 177.813 359.299, 211.225 355.646, 250 351.492 C 288.775 347.337, 321.512 343.719, 322.750 343.450 L 325 342.962 325.001 240.731 C 325.003 154.633, 325.238 137.164, 326.492 130.035 C 327.362 125.094, 329.418 118.546, 331.432 114.305 C 333.330 110.309, 336.988 104.789, 339.562 102.037 C 342.136 99.285, 346.550 95.532, 349.371 93.696 C 352.192 91.860, 356.540 89.602, 359.033 88.679 C 362.040 87.565, 366.611 87, 372.605 87 C 378.426 87, 383.398 87.596, 386.572 88.674 C 389.282 89.594, 392.633 91.057, 394.018 91.924 C 395.403 92.791, 398.012 94.614, 399.817 95.975 C 401.622 97.336, 404.917 100.858, 407.140 103.802 C 409.363 106.746, 412.299 111.596, 413.666 114.581 C 415.032 117.565, 417.016 123.634, 418.075 128.067 C 419.907 135.739, 420 140.864, 420 234.625 L 420 333.123 424.250 332.542 C 426.587 332.223, 459.775 328.598, 498 324.487 C 536.225 320.375, 568.962 316.764, 570.750 316.460 L 574 315.909 574.001 226.205 C 574.002 153.424, 574.266 135.179, 575.399 129.500 C 576.167 125.650, 577.326 121.065, 577.974 119.312 C 578.622 117.558, 579.915 114.633, 580.848 112.812 C 581.781 110.990, 583.955 107.475, 585.679 105 C 587.404 102.525, 590.544 98.874, 592.658 96.888 C 594.771 94.901, 597.850 92.552, 599.500 91.669 C 601.150 90.786, 604.242 89.374, 606.372 88.531 C 608.947 87.513, 613.626 87, 620.339 87 C 627.370 87, 631.809 87.514, 634.967 88.693 C 637.460 89.623, 641.075 91.361, 643 92.554 C 644.925 93.747, 648.612 96.923, 651.192 99.612 C 653.773 102.300, 656.821 105.709, 657.966 107.187 C 659.110 108.665, 661.394 112.754, 663.041 116.275 C 664.689 119.795, 666.695 125.786, 667.501 129.588 C 668.513 134.364, 668.971 142.900, 668.983 157.215 C 668.999 176.662, 669.118 177.993, 670.934 178.965 C 672.159 179.620, 685.342 180, 706.863 180 C 737.349 180, 741.030 179.827, 742.535 178.322 C 744.045 176.812, 744.163 174.087, 743.716 151.072 C 743.388 134.174, 742.679 122.467, 741.627 116.558 C 740.751 111.641, 739.125 104.110, 738.014 99.823 C 736.903 95.537, 734.899 89.120, 733.560 85.564 C 732.222 82.008, 729.018 75.093, 726.441 70.199 C 723.864 65.304, 718.913 57.319, 715.440 52.454 C 711.966 47.590, 706.509 40.942, 703.312 37.682 C 700.115 34.422, 694.575 29.388, 691 26.495 C 687.425 23.603, 681.493 19.407, 677.817 17.170 C 674.142 14.934, 668.015 11.776, 664.201 10.153 C 660.388 8.531, 653.495 6.174, 648.884 4.917 C 641.529 2.911, 638.106 2.624, 621 2.581 C 604.885 2.541, 600.458 2.849, 595.500 4.356 C 592.200 5.360, 587.475 6.865, 585 7.701 C 582.525 8.538, 577.575 10.598, 574 12.281 C 570.425 13.963, 564.575 17.242, 561 19.567 C 557.425 21.893, 551.228 26.654, 547.229 30.148 C 543.231 33.642, 537.232 39.650, 533.899 43.500 C 530.567 47.350, 525.378 54.470, 522.369 59.322 C 519.360 64.174, 515.509 70.699, 513.811 73.822 C 512.114 76.945, 509.263 83.822, 507.478 89.104 C 505.692 94.385, 503.506 102.260, 502.619 106.604 C 501.733 110.947, 500.315 118.753, 499.469 123.951 C 498.623 129.150, 497.721 133.612, 497.465 133.868 C 497.209 134.124, 496.736 134.069, 496.413 133.746 C 496.090 133.423, 495.408 129.636, 494.897 125.330 C 494.385 121.023, 493.493 115.250, 492.914 112.500 C 492.334 109.750, 491.168 105.025, 490.321 102 C 489.474 98.975, 488.202 94.925, 487.494 93 C 486.786 91.075, 484.704 85.900, 482.868 81.500 C 481.031 77.100, 477.814 70.337, 475.718 66.471 C 473.622 62.604, 469.669 56.453, 466.934 52.801 C 464.199 49.150, 458.788 42.764, 454.909 38.610 C 451.031 34.457, 445.077 28.850, 441.678 26.152 C 438.280 23.453, 432.125 19.223, 428 16.753 C 423.875 14.282, 416.900 10.882, 412.500 9.196 C 408.100 7.510, 401.800 5.328, 398.500 4.347 C 393.651 2.906, 388.759 2.560, 373 2.544 C 356.927 2.528, 352.445 2.846, 347.500 4.353 C 344.200 5.358, 339.475 6.882, 337 7.740 C 334.525 8.598, 329.575 10.658, 326 12.318 C 322.425 13.978, 315.450 18.036, 310.500 21.334 C 305.355 24.762, 297.211 31.650, 291.487 37.415 C 285.487 43.459, 278.821 51.508, 274.852 57.500 C 271.210 63, 267.327 69.300, 266.224 71.500 C 265.120 73.700, 263.016 78.425, 261.548 82 C 260.080 85.575, 258.061 90.975, 257.061 94 C 256.061 97.025, 254.513 101.914, 253.621 104.865 C 252.730 107.815, 252.006 111.190, 252.014 112.365 C 252.021 113.539, 251.051 118.218, 249.859 122.762 C 248.666 127.306, 247.550 130.884, 247.379 130.712 C 247.207 130.541, 246.625 126.507, 246.084 121.750 C 245.543 116.992, 243.954 108.562, 242.552 103.016 C 241.150 97.471, 238.412 88.786, 236.466 83.717 C 234.520 78.648, 230.863 70.900, 228.339 66.500 C 225.815 62.100, 220.918 54.675, 217.455 50 C 213.993 45.325, 208.087 38.569, 204.330 34.987 C 200.574 31.404, 195.475 26.855, 193 24.877 C 190.525 22.899, 185.493 19.441, 181.817 17.192 C 178.142 14.944, 172.015 11.776, 168.201 10.153 C 164.388 8.531, 157.495 6.209, 152.884 4.995 C 146.391 3.285, 141.004 2.714, 129 2.463 C 120.475 2.285, 110.800 2.484, 107.500 2.904 M 754.571 10.571 C 753.158 11.985, 753 26.422, 753 154.546 L 753 296.950 755.750 296.471 C 757.263 296.207, 795.909 291.943, 841.632 286.996 C 887.355 282.048, 925.009 278, 925.308 278 C 925.607 278, 924.804 275.413, 923.525 272.250 C 922.245 269.088, 918.696 260.776, 915.638 253.780 C 912.579 246.784, 907.098 233.643, 903.457 224.579 L 896.838 208.099 903.276 196.300 C 906.816 189.810, 910.724 182.700, 911.958 180.500 C 913.193 178.300, 915.670 174.025, 917.462 171 C 919.254 167.975, 922.871 161.450, 925.499 156.500 C 928.127 151.550, 931.641 145.025, 933.306 142 C 934.971 138.975, 938.284 133.200, 940.667 129.167 C 943.050 125.134, 945 121.702, 945 121.540 C 945 121.379, 947.700 116.410, 951 110.500 C 954.300 104.590, 957 99.575, 957 99.357 C 957 99.139, 958.049 97.282, 959.332 95.230 C 960.614 93.179, 963.151 88.800, 964.970 85.500 C 966.788 82.200, 971.418 73.726, 975.257 66.669 C 980.446 57.134, 982.529 54.128, 983.369 54.967 C 984.102 55.698, 984.611 62.488, 984.816 74.274 C 985.004 85.095, 985.559 92.969, 986.188 93.727 C 987.012 94.719, 996.132 95, 1027.551 95 C 1062.860 95, 1068.052 95.195, 1069.429 96.571 C 1070.832 97.974, 1071 106.924, 1071 180.071 C 1071 225.132, 1071.233 262, 1071.518 262 C 1071.804 262, 1086.541 260.435, 1104.268 258.523 C 1121.996 256.611, 1138.412 254.783, 1140.750 254.462 L 1145 253.877 1145 176.010 C 1145 106.314, 1145.166 97.977, 1146.583 96.560 C 1147.982 95.161, 1152.711 95.007, 1187.333 95.238 L 1226.500 95.500 1226.843 99 C 1227.031 100.925, 1226.496 106.100, 1225.654 110.500 C 1224.812 114.900, 1223.402 123.225, 1222.521 129 C 1221.639 134.775, 1220.492 142.200, 1219.971 145.500 C 1219.450 148.800, 1217.629 160.500, 1215.924 171.500 C 1214.220 182.500, 1212.455 193.975, 1212.004 197 C 1211.552 200.025, 1210.665 205.650, 1210.032 209.500 C 1209.399 213.350, 1208.456 218.750, 1207.935 221.500 C 1207.415 224.250, 1206.559 229.650, 1206.034 233.500 C 1205.509 237.350, 1204.659 242.184, 1204.147 244.242 C 1203.271 247.754, 1203.346 247.956, 1205.357 247.530 C 1206.536 247.280, 1223.025 245.427, 1242 243.413 C 1260.975 241.398, 1276.628 239.641, 1276.784 239.508 C 1276.940 239.375, 1277.475 235.944, 1277.972 231.883 C 1278.470 227.822, 1279.577 219.325, 1280.432 213 C 1281.287 206.675, 1282.649 196.775, 1283.460 191 C 1284.270 185.225, 1285.427 176.225, 1286.031 171 C 1286.635 165.775, 1287.356 159.979, 1287.634 158.120 C 1287.974 155.848, 1288.470 155.070, 1289.147 155.747 C 1289.702 156.302, 1290.560 158.498, 1291.055 160.628 C 1291.550 162.757, 1292.418 168.325, 1292.984 173 C 1293.551 177.675, 1294.440 184.425, 1294.960 188 C 1295.480 191.575, 1296.647 200.125, 1297.552 207 C 1298.458 213.875, 1299.798 223.256, 1300.530 227.847 C 1301.262 232.438, 1302.017 236.350, 1302.207 236.541 C 1302.398 236.731, 1317.932 235.210, 1336.728 233.159 C 1355.524 231.109, 1371.107 229.222, 1371.357 228.966 C 1371.608 228.710, 1371.171 224.450, 1370.387 219.500 C 1369.604 214.550, 1368.282 206.225, 1367.451 201 C 1366.619 195.775, 1365.505 188.350, 1364.975 184.500 C 1364.445 180.650, 1363.579 175.250, 1363.050 172.500 C 1362.521 169.750, 1361.585 164.125, 1360.970 160 C 1360.355 155.875, 1358.528 143.500, 1356.909 132.500 C 1355.290 121.500, 1353.266 107.775, 1352.411 102 C 1351.557 96.225, 1350.185 87.225, 1349.362 82 C 1348.540 76.775, 1347.216 68.450, 1346.421 63.500 C 1345.625 58.550, 1344.514 51.350, 1343.952 47.500 C 1343.390 43.650, 1342.499 38.925, 1341.971 37 C 1341.443 35.075, 1341.009 32.019, 1341.006 30.208 C 1341.003 28.397, 1340.297 23.447, 1339.437 19.208 C 1338.548 14.821, 1337.173 10.961, 1336.246 10.250 C 1334.999 9.293, 1324.121 9, 1289.809 9 C 1246.333 9, 1244.940 9.060, 1243 11 C 1241.900 12.100, 1240.995 13.563, 1240.989 14.250 C 1240.982 14.938, 1240.086 21.125, 1238.997 28 C 1237.909 34.875, 1236.526 43.863, 1235.925 47.973 C 1235.323 52.083, 1234.404 56.246, 1233.881 57.223 C 1233.358 58.200, 1232.518 59, 1232.015 59 C 1231.497 59, 1230.971 48.600, 1230.801 34.962 C 1230.550 14.911, 1230.251 10.767, 1229 9.978 C 1228.074 9.393, 1171.372 9.025, 1080.815 9.015 C 993.717 9.006, 933.145 9.374, 931.706 9.922 C 930.207 10.491, 927.415 13.962, 924.391 19.012 C 921.701 23.505, 918.779 28.378, 917.898 29.841 C 917.016 31.303, 911.901 40.150, 906.531 49.500 C 901.160 58.850, 896.199 67.175, 895.506 68 C 894.813 68.825, 890.932 75.350, 886.881 82.500 C 882.830 89.650, 879.062 96.225, 878.508 97.111 C 877.953 97.997, 876.258 100.922, 874.741 103.611 C 873.224 106.300, 871.538 109.175, 870.995 110 C 870.452 110.825, 865.956 118.405, 861.004 126.845 C 856.052 135.285, 852 142.382, 852 142.615 C 852 142.849, 850.774 144.943, 849.276 147.270 C 847.777 149.596, 846.044 152.435, 845.424 153.579 C 844.804 154.722, 841.710 159.991, 838.549 165.289 C 835.388 170.586, 832.160 175.452, 831.376 176.102 C 830.593 176.753, 829.625 176.958, 829.226 176.559 C 828.827 176.160, 828.380 138.656, 828.233 93.215 C 828.025 29.063, 827.690 10.422, 826.733 9.814 C 826.055 9.383, 809.895 9.024, 790.821 9.015 C 760.615 9.002, 755.940 9.203, 754.571 10.571 M 1416.571 10.571 C 1415.163 11.980, 1415 23.131, 1415 118.348 L 1415 224.553 1419.250 224.150 C 1421.588 223.928, 1438.575 222.101, 1457 220.089 L 1490.500 216.431 1490.755 114.074 C 1490.941 39.270, 1490.706 11.351, 1489.882 10.358 C 1488.972 9.261, 1481.974 9, 1453.449 9 C 1422.686 9, 1417.941 9.202, 1416.571 10.571 M 1509.571 10.571 C 1508.707 11.436, 1507.994 12.673, 1507.986 13.321 C 1507.978 13.970, 1507.984 59.244, 1508 113.931 C 1508.015 168.618, 1508.256 213.589, 1508.534 213.868 C 1508.813 214.146, 1524.894 212.698, 1544.270 210.649 C 1563.647 208.601, 1580.513 206.708, 1581.750 206.443 L 1584 205.962 1584 109.052 C 1584 22.286, 1583.836 11.978, 1582.429 10.571 C 1581.060 9.203, 1576.355 9, 1546 9 C 1515.645 9, 1510.940 9.203, 1509.571 10.571 M 1674.500 14.579 C 1670.650 15.890, 1665.025 17.961, 1662 19.180 C 1658.975 20.399, 1654.250 22.755, 1651.500 24.415 C 1648.750 26.075, 1643.594 29.698, 1640.042 32.467 C 1636.490 35.235, 1631.842 39.389, 1629.713 41.698 C 1627.584 44.006, 1624.139 48.281, 1622.058 51.198 C 1619.977 54.114, 1616.107 60.550, 1613.459 65.500 C 1610.810 70.450, 1608.306 76.075, 1607.894 78 C 1607.482 79.925, 1606.214 84.942, 1605.075 89.150 C 1603.936 93.357, 1602.561 101.007, 1602.020 106.150 C 1601.478 111.292, 1601.027 135.412, 1601.017 159.750 C 1601.001 202.683, 1601.057 204, 1602.915 204 C 1603.968 204, 1617.130 202.650, 1632.165 201 C 1647.199 199.350, 1659.821 198, 1660.213 198 C 1660.606 198, 1661.056 176.513, 1661.213 150.250 L 1661.500 102.500 1664.646 95.236 C 1666.377 91.241, 1669.302 86.260, 1671.146 84.167 C 1672.991 82.074, 1676.027 79.334, 1677.893 78.077 C 1679.760 76.821, 1683.768 74.940, 1686.800 73.897 C 1689.832 72.854, 1694.830 72, 1697.907 72.001 C 1700.983 72.001, 1705.525 72.801, 1708 73.778 C 1710.475 74.756, 1714.387 76.551, 1716.693 77.769 C 1718.999 78.986, 1722.495 81.908, 1724.463 84.261 C 1726.430 86.615, 1729.202 90.781, 1730.623 93.520 C 1732.044 96.259, 1733.830 100.750, 1734.591 103.500 C 1735.488 106.738, 1735.980 113.861, 1735.988 123.715 C 1735.999 137.727, 1736.153 139.011, 1737.934 139.965 C 1739.136 140.608, 1750.500 141, 1767.934 141 L 1796 141 1796 162 C 1796 174.030, 1796.391 183, 1796.915 183 C 1797.418 183, 1810.130 181.650, 1825.165 180 C 1840.199 178.350, 1853.063 177, 1853.750 177 C 1854.739 177, 1855 160.648, 1855 98.571 C 1855 28.606, 1854.830 19.973, 1853.429 18.571 C 1852.079 17.222, 1848.128 17, 1825.500 17 C 1802.872 17, 1798.921 17.222, 1797.571 18.571 C 1796.196 19.946, 1795.985 25.417, 1795.880 62.321 C 1795.796 91.622, 1795.471 103.126, 1794.814 100 C 1794.293 97.525, 1793.295 94.150, 1792.594 92.500 C 1791.893 90.850, 1789.847 85, 1788.047 79.500 C 1786.247 74, 1784.127 68.469, 1783.337 67.209 C 1782.547 65.949, 1780.795 62.840, 1779.444 60.300 C 1778.094 57.759, 1775.529 53.663, 1773.744 51.196 C 1771.960 48.729, 1767.134 43.324, 1763.019 39.185 C 1758.905 35.046, 1751.679 29.126, 1746.961 26.028 C 1742.126 22.853, 1734.918 19.215, 1730.442 17.691 C 1726.074 16.203, 1720.475 14.312, 1718 13.488 C 1714.690 12.386, 1709.271 12.017, 1697.500 12.092 C 1683.427 12.182, 1680.657 12.481, 1674.500 14.579 M 1931.250 18.031 L 1929 18.936 1929 93.987 L 1929 169.038 1931.250 168.549 C 1932.487 168.280, 1944.750 166.901, 1958.500 165.485 C 1972.250 164.068, 1984.585 162.678, 1985.912 162.395 L 1988.324 161.881 1987.701 90.705 C 1987.124 24.817, 1986.949 19.436, 1985.347 18.265 C 1984.056 17.320, 1977.268 17.016, 1958.559 17.063 C 1944.776 17.098, 1932.487 17.534, 1931.250 18.031 M 2001.250 17.987 L 1999 18.936 1999 89.968 C 1999 129.035, 1999.187 161, 1999.415 161 C 1999.643 161, 2012.130 159.650, 2027.165 158 C 2042.199 156.350, 2055.063 155, 2055.750 155 C 2056.727 155, 2057 146.972, 2057 118.191 C 2057 89.623, 2057.290 80.985, 2058.296 79.610 C 2059.487 77.981, 2061.544 77.864, 2083.546 78.170 C 2106.571 78.491, 2107.674 78.597, 2111.998 80.899 C 2114.471 82.216, 2119.077 85.932, 2122.232 89.156 C 2125.388 92.381, 2128.824 96.703, 2129.868 98.760 C 2130.913 100.817, 2132.553 106.046, 2133.513 110.379 C 2135.177 117.891, 2135.176 118.652, 2133.489 126.692 C 2132.207 132.797, 2130.659 136.764, 2127.881 141.063 L 2124.044 147 2126.772 146.970 C 2128.272 146.953, 2143.128 145.438, 2159.784 143.603 C 2176.440 141.768, 2190.286 140.048, 2190.553 139.781 C 2190.820 139.514, 2191.926 134.634, 2193.012 128.937 C 2194.866 119.205, 2194.893 118.064, 2193.452 110.040 C 2192.608 105.343, 2190.765 97, 2189.357 91.500 C 2187.949 86, 2185.170 78.125, 2183.182 74 C 2181.194 69.875, 2177.608 63.575, 2175.213 60 C 2172.818 56.425, 2167.860 50.439, 2164.195 46.698 C 2160.529 42.957, 2153.698 37.281, 2149.015 34.084 C 2144.332 30.887, 2136.675 26.619, 2132 24.599 C 2127.325 22.579, 2119.900 20.212, 2115.500 19.338 C 2108.975 18.042, 2097.916 17.684, 2055.500 17.394 C 2024.098 17.179, 2002.609 17.414, 2001.250 17.987 M 2201.500 17.732 C 2200.400 18.007, 2199.169 18.742, 2198.765 19.366 C 2198.361 19.990, 2198.024 47.162, 2198.015 79.750 C 2198.001 137.045, 2198.062 139, 2199.877 139 C 2200.909 139, 2212.272 137.872, 2225.127 136.494 C 2237.982 135.116, 2250.166 133.730, 2252.203 133.414 L 2255.906 132.840 2256.203 106.882 C 2256.452 85.121, 2256.743 80.772, 2258 79.978 C 2258.890 79.416, 2279.245 79.024, 2308.050 79.015 C 2344.460 79.004, 2356.900 78.700, 2357.800 77.800 C 2358.678 76.922, 2359 68.874, 2359 47.835 C 2359 20.420, 2358.909 19.022, 2357.066 18.035 C 2355.776 17.345, 2329.884 17.039, 2279.316 17.116 C 2237.617 17.180, 2202.600 17.457, 2201.500 17.732" stroke="none" fill="#d4fc04" fill-rule="evenodd"/></svg>